<?xml version="1.0" encoding="UTF-8" standalone="no"?>
<!-- Created with Inkscape (http://www.inkscape.org/) -->

<svg
   xmlns:dc="http://purl.org/dc/elements/1.1/"
   xmlns:cc="http://creativecommons.org/ns#"
   xmlns:rdf="http://www.w3.org/1999/02/22-rdf-syntax-ns#"
   xmlns:svg="http://www.w3.org/2000/svg"
   xmlns="http://www.w3.org/2000/svg"
   xmlns:sodipodi="http://sodipodi.sourceforge.net/DTD/sodipodi-0.dtd"
   xmlns:inkscape="http://www.inkscape.org/namespaces/inkscape"
   width="744.09448819"
   height="1052.3622047"
   id="svg3072"
   version="1.1"
   inkscape:version="0.48.1 r9760"
   sodipodi:docname="illustrations.svg">
  <defs
     id="defs3074" />
  <sodipodi:namedview
     id="base"
     pagecolor="#ffffff"
     bordercolor="#666666"
     borderopacity="1.0"
     inkscape:pageopacity="0.0"
     inkscape:pageshadow="2"
     inkscape:zoom="0.53118594"
     inkscape:cx="346.83653"
     inkscape:cy="238.74879"
     inkscape:document-units="px"
     inkscape:current-layer="layer1"
     showgrid="false"
     inkscape:window-width="1366"
     inkscape:window-height="738"
     inkscape:window-x="0"
     inkscape:window-y="0"
     inkscape:window-maximized="0"
     showborder="false" />
  <metadata
     id="metadata3077">
    <rdf:RDF>
      <cc:Work
         rdf:about="">
        <dc:format>image/svg+xml</dc:format>
        <dc:type
           rdf:resource="http://purl.org/dc/dcmitype/StillImage" />
        <dc:title></dc:title>
      </cc:Work>
    </rdf:RDF>
  </metadata>
  <g
     inkscape:label="Layer 1"
     inkscape:groupmode="layer"
     id="layer1">
    <path
       style="fill:#3465a4;fill-opacity:1;stroke:none"
       id="path3016"
       d="m -43.047718,307.61729 c 7.063159,21.04497 11.686235,42.79387 16.31007,64.47199 7.626984,36.19501 13.035926,72.78722 18.5675811,109.34333 3.1743761,20.35928 6.5081734,40.76107 12.0963391,60.61869 1.6897642,7.42431 6.0222894,13.82219 8.5378148,20.911 0.133005,1.91242 0.259586,0.98283 -0.378868,2.78889 0.343043,1.09582 -1.20668,1.58096 -1.549723,0.48514 l 0,0 c -1.4183383,0.0307 -0.641928,0.17607 -2.2300612,-0.80148 -5.3159251,-6.10765 -7.75480846,-14.20758 -10.3605576,-21.71064 -5.5934764,-20.11876 -9.0513812,-40.7476 -12.2063142,-61.36986 -5.514286,-36.44133 -10.89862,-72.91776 -18.308036,-109.03654 -4.475056,-21.51352 -9.002331,-43.06313 -15.512107,-64.0738 -1.150264,-3.55948 3.883599,-5.18619 5.033862,-1.62672 z"
       inkscape:connector-curvature="0"
       inkscape:export-filename="/home/rick/projects/compiler-tutorial/static/images/compiler.png"
       inkscape:export-xdpi="26.98"
       inkscape:export-ydpi="26.98" />
    <path
       style="fill:#3465a4;fill-opacity:1;stroke:none"
       id="path3018"
       d="m -53.443709,313.48412 c 15.470842,1.38579 30.983667,1.77459 46.5070088,1.94235 30.1851052,0.19447 60.3423562,-0.82426 90.4559272,-2.82759 34.439313,-2.57198 68.594543,-7.79773 102.712873,-12.99193 17.73138,-2.81042 35.53281,-5.15053 53.43786,-6.48447 9.60331,-0.44255 19.19909,-0.96812 28.78827,-1.65034 4.79273,-0.4547 9.57491,-0.96242 14.38557,-1.17283 3.13055,0.0275 5.77653,1.45808 7.78637,3.77399 3.28279,7.99828 3.14472,17.19993 3.70362,25.71976 1.15409,23.03577 0.9532,46.11939 0.97245,69.17773 -0.0371,28.10485 -0.19546,56.20783 0.52528,84.30543 0.71152,21.42284 2.5522,42.78339 3.73839,64.18068 0.71121,10.16329 0.76369,20.36635 1.7623,30.50872 1.01522,4.47262 -1.21349,6.22192 -5.68639,6.16432 -7.37905,0.60498 -14.57894,2.69313 -21.85238,4.05487 -17.98371,2.80741 -36.16817,4.03832 -54.27563,5.77966 -22.21335,2.34337 -44.40397,4.83509 -66.66344,6.70536 -23.48142,1.84219 -46.95802,3.7515 -70.473812,5.10049 -19.170934,0.94636 -38.366378,1.73959 -57.548537,0.78511 -10.854643,-0.57733 -21.5002491,-2.67465 -31.8545558,-5.90475 -5.4166062,-1.67849 -10.6094782,-4.05025 -16.1274252,-5.39414 -2.702253,-0.66628 -5.487018,-0.82501 -8.16341,-1.5975 -1.665802,-0.76724 3.766868,-0.19855 -1.3963,-2.91945 -0.203078,0.13242 -0.390348,-0.15477 -0.18727,-0.28719 l 0,0 c 0.356666,-3.12353 -0.616913,-4.95767 3.5199,-4.05641 2.667112,0.6309 5.375639,1.04273 8.047544,1.65389 5.636228,1.46469 10.993022,3.76292 16.5144435,5.59083 9.7505396,3.10142 19.7893045,4.98689 30.0226615,5.57499 18.916516,0.99571 37.855022,0.20901 56.765087,-0.64924 23.456284,-1.31036 46.868234,-3.25427 70.293524,-5.02083 22.23994,-1.80337 44.44978,-3.92661 66.65783,-6.08312 17.93927,-1.55158 35.94732,-2.64831 53.76729,-5.305 7.64544,-1.36368 15.258,-3.43341 23.02926,-3.80276 1.53195,0.0199 1.7662,0.0182 1.75074,0.0439 -2.28291,3.7899 -1.65978,2.44838 -1.8796,0.0276 -0.63745,-10.20883 -1.35393,-20.41266 -1.92144,-30.62595 -1.30861,-21.45366 -3.07391,-42.8827 -3.83002,-64.36664 -0.75738,-28.14921 -0.57419,-56.30437 -0.52734,-84.46144 0.008,-22.94887 0.20459,-45.91104 -0.62797,-68.84863 -0.39518,-7.69627 -0.5918,-15.46253 -2.04234,-23.0523 -0.61066,-1.3561 -2.11594,-1.79503 -3.5059,-1.87561 -4.77228,0.36487 -9.53427,0.85167 -14.30216,1.26786 -9.58796,0.76348 -19.18899,1.25371 -28.79648,1.70131 -17.7785,1.27103 -35.45603,3.56509 -53.06271,6.32445 -34.2561,5.21507 -68.55646,10.44015 -103.142065,12.93753 -30.241456,1.92319 -60.523258,2.93136 -90.8310865,2.40211 -15.6102115,-0.26415 -31.2213405,-0.66668 -46.7560475,-2.35575 -2.820706,-0.21928 -2.510596,-4.20836 0.31011,-3.98908 z"
       inkscape:connector-curvature="0"
       inkscape:export-filename="/home/rick/projects/compiler-tutorial/static/images/compiler.png"
       inkscape:export-xdpi="26.98"
       inkscape:export-ydpi="26.98" />
    <path
       style="fill:#ce5c00;fill-opacity:1;stroke:none"
       id="path3020"
       d="m -260.52643,467.58747 c 11.43196,-2.63542 22.75377,-5.70939 34.04408,-8.88937 12.50823,-3.6923 25.30677,-6.23696 37.97599,-9.29318 11.4763,-2.67631 22.56827,-6.61903 33.58274,-10.7488 6.65234,-2.63895 13.42285,-4.91401 20.40052,-6.50577 7.10823,-1.4681 14.25602,-2.7329 21.41885,-3.90228 6.84993,-1.09961 13.764794,-1.68216 20.645763,-2.53977 5.353445,-0.69767 10.635759,-1.82421 15.977732,-2.59159 4.665195,-0.60919 9.342,-1.12577 14.008213,-1.73135 4.15347,-0.45004 8.297781,-0.98953 12.461716,-1.33611 1.235333,-0.14633 2.496687,-0.0527 3.702746,-0.3689 3.257876,5.59703 2.191744,4.94619 -0.581695,9.76496 -3.976836,7.11477 -7.370555,14.53255 -11.051766,21.80134 -4.820592,9.24511 -10.391416,18.0655 -15.946091,26.87918 -2.932912,4.63156 -5.877378,9.26391 -9.124207,13.68422 -1.578142,3.45082 -6.562996,0.4958 -4.253853,-3.76609 3.055664,-5.73447 6.255549,-11.38191 9.614135,-16.94499 4.762762,-7.66569 9.998807,-15.02209 14.390311,-22.91305 2.242158,-4.59332 4.332117,-9.27244 6.294048,-13.99426 0.324527,-0.96399 0.963336,-2.02521 0.78876,-3.07491 0.818092,5.06565 -0.497116,3.05386 -2.959791,1.33211 -3.514266,-2.31209 -7.138034,-4.44255 -10.628528,-6.79502 -4.747153,-3.48244 -10.421342,-4.97368 -16.040927,-6.38121 -11.213866,-2.66995 -22.685996,-3.9735 -34.127066,-5.21631 -9.71463,-0.86876 -19.36515,-2.13333 -28.83754,-4.47342 -2.07535,-1.15597 -5.85086,-0.75763 -7.4923,-2.71004 -0.27684,-1.04091 0.17164,-1.88894 0.75556,-2.70009 -0.11761,0.212 -0.41742,0.0457 -0.29982,-0.16632 l 0,0 c 0.84362,-1.38999 1.60852,-2.59514 2.16017,-4.09111 1.88846,-0.88033 4.93212,1.95216 6.89594,1.59607 9.10051,2.30794 18.38112,3.60821 27.72486,4.49314 11.81073,1.37684 23.66339,2.76047 35.222368,5.64146 6.465756,1.77009 13.044149,3.52348 18.429549,7.72212 3.431465,2.48975 7.058305,4.67932 10.459374,7.20862 2.921346,2.16156 4.085323,2.70584 4.64298,6.99564 -0.849545,0.73848 -1.292629,1.82441 -1.787658,2.81255 -2.277557,4.75488 -4.359049,9.59943 -6.701605,14.32121 -4.462434,7.91505 -9.720737,15.32183 -14.532097,23.02359 -3.328967,5.51156 -6.503408,11.10601 -9.525303,16.79193 -2.096007,3.63949 -7.435142,0.6833 -4.747067,-1.83701 2.908882,-4.55585 5.93132,-9.03985 8.716927,-13.67381 5.428562,-8.68418 10.957243,-17.32584 15.686032,-26.42018 3.762249,-7.36748 7.196903,-14.9109 11.337583,-22.07769 2.726061,-4.44784 1.655488,-6.28113 5.866432,-1.93984 -1.1919,-0.15599 -2.382574,0.20688 -3.575857,0.27412 -4.101404,0.47137 -8.205814,0.91622 -12.307381,1.38587 -4.64451,0.60238 -9.299665,1.1172 -13.941353,1.73912 -5.376545,0.76847 -10.690933,1.9152 -16.080408,2.60519 -6.81671,0.81146 -13.661686,1.39375 -20.446216,2.46039 -7.06645,1.18541 -14.11907,2.44701 -21.13976,3.88198 -6.77147,1.49709 -13.33341,3.69477 -19.77963,6.25085 -11.19845,4.19854 -22.48766,8.18282 -34.16667,10.85764 -12.62052,3.00869 -25.37885,5.46264 -37.83755,9.11883 -11.37478,3.17347 -22.76922,6.28054 -34.31051,8.80129 -3.08366,0.69348 -4.06439,-3.66747 -0.98073,-4.36095 z"
       inkscape:connector-curvature="0"
       inkscape:export-filename="/home/rick/projects/compiler-tutorial/static/images/compiler.png"
       inkscape:export-xdpi="26.98"
       inkscape:export-ydpi="26.98" />
    <path
       style="fill:#ce5c00;fill-opacity:1;stroke:none"
       id="path3022"
       d="m 318.24478,419.45984 c 9.03172,-0.59219 18.06079,-1.21025 27.08207,-1.94647 11.58867,-0.91623 23.12267,-2.38032 34.63193,-3.99317 7.57905,-1.1309 15.18796,-2.00094 22.84142,-2.38709 4.81639,-0.2203 9.62058,-0.63764 14.43648,-0.86168 5.08291,-0.21382 10.17047,-0.23609 15.25511,-0.40146 5.59034,-0.15425 11.18222,-0.23863 16.77414,-0.3074 4.58391,-0.04 9.16822,-0.0476 13.75231,-0.0475 4.36575,0.005 8.73145,0.0106 13.09722,0.0113 6.14088,7e-4 12.28176,6.3e-4 18.42264,6.7e-4 4.13015,-0.04 8.26073,0.0829 12.38894,-0.0753 10.86473,0.0766 2.18514,7.98505 -0.0764,9.89228 -8.05794,6.26288 -15.70315,13.02592 -23.32582,19.80435 -8.91907,7.89369 -17.98898,15.6141 -26.61004,23.83566 -4.24979,4.19351 -8.53663,8.34987 -12.78867,12.54105 -2.07535,2.10675 -4.13458,4.23546 -6.35899,6.18668 -0.13483,0.10923 -0.26966,0.21846 -0.40449,0.32769 -0.0156,0.0114 -0.0357,0.0501 -0.0467,0.0343 -4.00732,-5.74203 -4.98904,-3.68208 -2.2798,-6.4318 1.35461,-1.37484 2.68949,-2.769 4.03583,-4.15194 7.19317,-7.24548 14.39318,-14.48316 21.66381,-21.65101 7.06416,-7.23751 14.32258,-14.27385 21.68317,-21.20785 6.75769,-5.99647 13.16148,-12.33035 18.92066,-19.29173 2.40814,-2.85747 4.88809,-5.65296 7.33052,-8.48083 0.0888,-0.11025 0.25116,-0.47152 0.26649,-0.33076 0.73073,6.70737 0.71136,7.00342 -3.02576,3.5807 -3.3109,-2.72946 -7.06391,-4.87212 -10.83086,-6.89823 -6.7752,-3.46695 -14.16228,-5.40218 -21.51649,-7.19498 -6.63391,-1.22933 -12.68998,-4.13187 -18.82391,-6.79279 -5.1999,-2.19791 -10.63437,-3.76007 -16.05564,-5.3027 -1.92673,-0.74526 -4.76171,-0.33327 -4.65716,-2.84659 0.50451,-2.02202 1.04006,-1.58472 -0.003,-2.07423 -0.21735,0.1074 -0.36923,-0.19997 -0.15188,-0.30737 l 0,0 c 1.00796,-1.29845 0.41327,-0.46135 1.63725,-2.60941 1.20069,-2.16202 3.29036,-0.37577 5.3078,-0.0313 5.84357,1.50894 11.66171,3.18831 17.19494,5.63117 5.71604,2.48135 11.34018,5.25424 17.52484,6.40548 7.995,2.02929 16.04823,4.15789 23.34562,8.11966 4.33853,2.3754 8.716,4.82329 12.39606,8.17097 0.58933,0.56448 4.05487,5.28751 2.22898,7.11116 -2.62947,2.44785 -4.93708,5.21902 -7.31114,7.90705 -5.98488,7.09892 -12.51864,13.6639 -19.50326,19.78735 -7.34766,6.87417 -14.54126,13.90356 -21.60848,21.06631 -7.25141,7.14889 -14.46159,14.33843 -21.61852,21.58211 -0.78403,0.78142 -1.56805,1.56284 -2.35208,2.34426 -0.60032,0.61777 -1.19131,1.24474 -1.80096,1.8533 -2.73739,2.73252 -1.34945,1.73993 -6.78745,-2.09071 -0.24407,-0.17193 0.9982,-0.54989 0.54305,-0.71218 1.89241,-2.3669 3.99015,-4.56012 6.09882,-6.73369 4.2778,-4.21473 8.59503,-8.38968 12.85195,-12.62584 8.65146,-8.30376 17.75142,-16.11486 26.67443,-24.12322 7.64127,-6.86667 15.31522,-13.70082 23.37961,-20.07264 0.55901,-0.46999 1.12504,-0.93176 1.67703,-1.40997 0.26446,-0.22912 0.53024,-0.96472 0.77178,-0.71155 6.04415,6.33529 5.14324,5.23111 2.405,5.13398 -4.12823,-0.15822 -8.25884,-0.0353 -12.38901,-0.0753 -6.14124,-3e-5 -12.28249,4e-5 -18.42373,-6.6e-4 -4.3654,-7e-4 -8.73075,0.003 -13.09613,0.005 -4.5632,-2e-5 -9.12638,-0.0124 -13.68956,0.0138 -5.54348,0.03 -11.08639,0.1219 -16.62662,0.3213 -5.03777,0.13551 -10.07606,0.19617 -15.11293,0.36228 -4.81385,0.2587 -9.62023,0.6296 -14.4365,0.84492 -7.44404,0.37142 -14.84867,1.21576 -22.21825,2.32793 -11.64374,1.63091 -23.31267,3.09872 -35.037,4.02119 -9.05499,0.73881 -18.11845,1.34165 -27.18497,1.92055 -4.92525,0.33064 -5.39284,-6.63471 -0.46759,-6.96535 z"
       inkscape:connector-curvature="0"
       inkscape:export-filename="/home/rick/projects/compiler-tutorial/static/images/compiler.png"
       inkscape:export-xdpi="26.98"
       inkscape:export-ydpi="26.98" />
    <path
       style="fill:#4e9a06;fill-opacity:1;stroke:none"
       id="path3024"
       d="m -434.84896,453.7352 c -5.98888,-1.43149 -12.12307,-1.00898 -18.15808,-0.18549 -6.05793,0.80818 -11.44312,3.28447 -16.43573,6.69195 -3.44766,2.44302 -6.2217,5.60177 -8.68175,9.00114 -0.35352,0.80883 -2.42136,2.75016 -0.9069,3.31725 4.36654,1.09776 8.98807,0.99752 13.46605,1.13106 8.53602,0.0428 17.00943,1.00719 25.4064,2.47357 6.38625,1.22597 12.76788,2.80957 18.45235,6.04719 3.78207,2.16819 3.75002,5.53537 2.19198,9.15868 -3.65784,5.34835 -10.38167,7.21837 -16.2117,9.25038 -7.53411,2.55199 -15.31574,4.35633 -23.23126,5.14853 -2.8462,0.21435 -5.72609,0.0787 -8.33854,-1.13726 -0.70262,-0.55304 -0.47604,-0.18691 -0.61938,-1.13354 -0.10686,-0.11873 0.061,-0.26987 0.16791,-0.15114 l 0,0 c 0.6912,0.009 0.3947,-0.0845 0.90903,0.20867 2.38142,0.88199 5.20633,-0.28818 7.64217,-0.14628 7.72702,-0.79115 15.28701,-2.69572 22.65383,-5.13284 5.26093,-1.8305 11.25952,-3.45827 15.02969,-7.81513 1.27777,-2.62084 1.56627,-4.81667 -1.24097,-6.47294 -5.38246,-3.29199 -11.61639,-4.65599 -17.7444,-5.86799 -8.30997,-1.43107 -16.68723,-2.41121 -25.13079,-2.50057 -4.78314,-0.173 -9.82394,0.047 -14.40041,-1.51205 -2.38077,-1.78163 -1.70198,-4.04607 -0.39904,-6.40099 2.40148,-3.89841 5.39079,-7.35354 8.94169,-10.26195 5.30361,-4.12121 11.12304,-7.16808 17.84615,-8.20657 6.60392,-1.03533 13.33153,-1.56936 19.91624,-0.0435 3.21014,0.79517 2.0856,5.335 -1.12454,4.53983 z"
       inkscape:connector-curvature="0"
       inkscape:export-filename="/home/rick/projects/compiler-tutorial/static/images/compiler.png"
       inkscape:export-xdpi="26.98"
       inkscape:export-ydpi="26.98" />
    <path
       style="fill:#4e9a06;fill-opacity:1;stroke:none"
       id="path3026"
       d="m -390.9026,466.15197 c 3.1759,5.06247 6.12845,10.24907 8.90691,15.53906 2.3112,4.45589 4.28593,9.08706 6.77179,13.45084 0.20082,0.32519 0.39237,0.65628 0.60245,0.97557 0.40713,0.61878 0.92147,1.271 0.90855,1.27754 -2.96139,1.50019 -2.22332,1.88644 -3.44714,0.32271 -2.87468,-3.63216 -5.66559,-7.32919 -8.59423,-10.91831 -4.02503,-4.4021 -7.3109,-9.23097 -9.70651,-14.68671 -2.02249,-5.32154 -2.68777,-10.79107 -0.80164,-16.20205 3.24125,-5.46166 9.51681,-7.28808 15.27692,-8.92405 4.97641,-1.10289 10.2319,-2.18877 15.35474,-1.91801 0.37127,0.0304 0.74254,0.0608 1.1138,0.0912 0.1593,-0.0119 0.17607,0.21343 0.0168,0.22528 l 0,0 c -0.35503,0.0845 -0.71007,0.16893 -1.0651,0.25339 -4.84108,1.43007 -9.77998,2.60892 -14.62339,4.08027 -4.80506,1.44029 -10.3303,2.82779 -13.33468,7.18087 -1.74836,4.63234 -0.85096,9.44857 0.78975,14.01611 2.28724,5.21346 5.47054,9.77458 9.31284,13.98024 2.94371,3.60988 5.73011,7.34216 8.60695,11.00522 1.2012,1.56786 1.09062,0.83386 -1.33762,3.06543 -0.0352,0.0324 -1.25613,-2.37669 -1.36762,-2.55011 -2.40191,-4.4345 -4.61131,-8.96548 -6.85185,-13.48313 -2.73681,-5.25529 -5.6255,-10.42332 -8.54881,-15.5765 -0.85194,-1.42632 1.16517,-2.63115 2.01712,-1.20484 z"
       inkscape:connector-curvature="0"
       inkscape:export-filename="/home/rick/projects/compiler-tutorial/static/images/compiler.png"
       inkscape:export-xdpi="26.98"
       inkscape:export-ydpi="26.98" />
    <path
       style="fill:#4e9a06;fill-opacity:1;stroke:none"
       id="path3028"
       d="m -309.97968,445.34121 c -5.38847,3.89041 -9.69449,8.91969 -13.60637,14.23545 -3.91032,5.60754 -6.8689,11.7432 -8.68771,18.32227 -1.0723,4.66834 -1.80401,9.53197 0.63923,13.84843 3.23551,3.91228 8.52259,4.75643 13.24228,5.69871 5.84493,1.08011 11.65545,0.5597 17.36582,-0.89185 0.7459,0.15163 4.56937,-2.02763 5.13189,-1.65439 0.23697,0.15724 0.28943,0.48963 0.43415,0.73444 -0.0406,0.44913 -0.0811,0.89825 -0.1217,1.34737 -0.15762,0.026 -0.19431,-0.19696 -0.0367,-0.22291 l 0,0 c 0.43635,0.37063 0.87269,0.74126 1.30904,1.11189 0.001,0.31858 0.0896,0.64883 0.004,0.95573 -0.25465,0.91425 -4.91572,1.76979 -5.66585,2.08033 -6.36158,1.47422 -12.81072,2.026 -19.27392,0.7109 -5.99763,-1.25381 -12.2922,-2.65017 -16.04114,-7.95128 -2.70905,-5.43249 -2.59852,-11.06941 -1.11189,-16.90959 1.96403,-7.08163 5.06826,-13.73089 9.30176,-19.76075 4.17694,-5.68783 8.80466,-11.07012 14.59287,-15.19273 2.50173,-1.78485 5.02588,1.75314 2.52415,3.53798 z"
       inkscape:connector-curvature="0"
       inkscape:export-filename="/home/rick/projects/compiler-tutorial/static/images/compiler.png"
       inkscape:export-xdpi="26.98"
       inkscape:export-ydpi="26.98" />
    <path
       style="fill:#4e9a06;fill-opacity:1;stroke:none"
       id="path3030"
       d="m 594.16175,374.15113 c 0.65908,9.83023 0.91464,19.6798 1.03421,29.52933 0.094,11.39808 -0.28268,22.81167 0.69015,34.18012 0.51928,5.69046 2.63375,10.68471 6.31033,14.99867 2.72813,2.96279 6.28253,4.08954 10.14007,4.68433 4.34674,0.5886 8.70575,0.0499 12.99613,-0.68089 2.97614,-0.49623 5.88736,-1.28842 8.80633,-2.03582 1.31491,-0.18748 1.18909,-0.51208 0.84726,-1.70802 -0.0937,-0.1294 0.0893,-0.26186 0.183,-0.13246 l 0,0 c 1.65034,1.29925 1.68327,2.80309 0.23073,4.35483 -2.75626,1.97127 -6.18967,2.51421 -9.44954,3.16476 -4.69451,0.79269 -9.47158,1.27447 -14.21487,0.57186 -4.63284,-0.85049 -8.8772,-2.42864 -12.1614,-5.97267 -4.1823,-4.86281 -6.60002,-10.51267 -7.18354,-16.95141 -0.94222,-11.45804 -0.58419,-22.95456 -0.65814,-34.44026 -0.0678,-9.79067 -0.25856,-19.58009 -0.7301,-29.36053 -0.14273,-2.23402 3.01666,-2.43586 3.15938,-0.20184 z"
       inkscape:connector-curvature="0"
       inkscape:export-filename="/home/rick/projects/compiler-tutorial/static/images/compiler.png"
       inkscape:export-xdpi="26.98"
       inkscape:export-ydpi="26.98" />
    <path
       style="fill:#4e9a06;fill-opacity:1;stroke:none"
       id="path3032"
       d="m 554.74806,425.02166 c 5.6788,-0.5466 11.38256,-0.71003 17.08014,-0.93263 4.86485,-0.0965 9.68584,-0.51375 14.4915,-1.2601 4.76249,-0.86831 9.547,-1.62475 14.35473,-2.19429 2.51502,-0.39254 5.06115,-0.35754 7.59088,-0.16991 2.33982,0.42212 4.78528,0.1569 7.09744,0.71136 0.70296,0.62846 0.40247,0.27985 0.91006,1.03836 0.81062,0.11684 0.64538,1.26322 -0.16523,1.14638 l 0,0 c -0.39461,0.67709 -0.12927,0.35649 -0.85146,0.91306 -2.38618,0.3881 -4.85436,-0.0718 -7.24598,-0.21115 -2.29257,-0.15427 -4.60186,-0.21823 -6.88539,0.0951 -4.76692,0.65499 -9.53061,1.34288 -14.2616,2.22578 -4.93969,0.74366 -9.89325,1.14999 -14.89221,1.17713 -5.68592,0.2453 -11.37584,0.39725 -17.06265,0.62265 -2.2357,0.1133 -2.39594,-3.04846 -0.16023,-3.16177 z"
       inkscape:connector-curvature="0"
       inkscape:export-filename="/home/rick/projects/compiler-tutorial/static/images/compiler.png"
       inkscape:export-xdpi="26.98"
       inkscape:export-ydpi="26.98" />
    <path
       style="fill:#4e9a06;fill-opacity:1;stroke:none"
       id="path3034"
       d="m 675.65057,426.38771 c -5.18245,-0.71194 -10.20512,0.007 -15.1124,1.68343 -4.65778,1.8223 -7.88661,5.16155 -10.28262,9.4399 -1.77732,3.75324 -2.19726,7.69347 -0.73811,11.58666 1.93693,3.69188 5.257,3.78431 8.85173,2.69604 5.71319,-2.51066 9.89921,-7.16392 13.60296,-12.03176 3.06512,-4.11481 5.19353,-8.78683 7.27459,-13.44537 0.52756,-2.54094 3.12892,-4.8298 3.9586,-0.0625 0.81864,3.93772 1.7206,7.85861 2.67998,11.7643 1.07405,4.42486 2.595,8.71566 3.96003,13.05307 0.5307,1.13871 0.51588,2.38549 0.63414,3.56199 0.51949,0.56074 -0.27351,1.29541 -0.793,0.73468 l 0,0 c -1.1024,-0.91708 -1.95039,-1.89606 -2.46788,-3.29056 -1.93328,-4.27049 -3.32507,-8.74559 -4.42919,-13.29894 -0.98307,-4.00451 -1.93257,-8.02377 -2.67404,-12.08056 -0.0392,-0.33869 -0.42083,-0.86005 -0.11766,-1.01606 4.05749,-2.08795 1.91075,0.63717 1.41189,1.66005 -2.3486,4.68219 -4.88785,9.29624 -7.90911,13.5809 -3.96162,5.22267 -8.37094,10.30085 -14.50207,12.99673 -5.17118,1.50239 -8.72611,0.93561 -11.5876,-3.97024 -1.98543,-4.63552 -1.81183,-9.21156 0.43459,-13.77864 2.71689,-4.91664 6.40425,-8.77554 11.76719,-10.81427 5.31747,-1.80965 10.77824,-2.60323 16.39388,-1.8703 2.0516,0.25166 1.6957,3.15306 -0.3559,2.9014 z"
       inkscape:connector-curvature="0"
       inkscape:export-filename="/home/rick/projects/compiler-tutorial/static/images/compiler.png"
       inkscape:export-xdpi="26.98"
       inkscape:export-ydpi="26.98" />
    <path
       style="fill:#4e9a06;fill-opacity:1;stroke:none"
       id="path3036"
       d="m 708.44564,425.73499 c 1.62945,4.9878 2.88533,10.08285 3.936,15.2202 0.0641,0.28223 0.99386,4.94078 0.76167,5.00596 -3.05415,0.85738 -2.69931,0.74537 -3.69353,-0.90787 -1.94507,-3.30474 -2.71546,-6.94555 -2.89379,-10.73144 0.0525,-5.1631 2.48638,-9.4284 5.811,-13.19084 2.33935,-2.24419 4.96423,-4.3755 8.27343,-4.72524 0.73847,-0.35045 1.45568,-0.29881 2.23577,-0.2272 0.14952,-0.0562 0.22903,0.15523 0.0795,0.21145 l 0,0 c -0.50533,0.54298 -0.9822,1.07619 -1.69527,1.35755 -2.02545,2.04386 -4.68693,3.25015 -6.67227,5.35096 -2.8117,3.16508 -4.99071,6.74646 -5.08927,11.10638 0.10324,3.3298 0.81291,6.47714 2.48614,9.39326 0.83054,1.5433 0.71981,0.69347 -1.7264,2.18698 -0.26397,0.16117 -0.0407,-0.61887 -0.0998,-0.92244 -0.0905,-0.46489 -0.20007,-0.92586 -0.30043,-1.38872 -0.13713,-0.63246 -0.27468,-1.26482 -0.41202,-1.89723 -1.10518,-5.04425 -2.25149,-10.0815 -3.63337,-15.0586 -0.55378,-1.86155 2.07885,-2.64472 2.63264,-0.78316 z"
       inkscape:connector-curvature="0"
       inkscape:export-filename="/home/rick/projects/compiler-tutorial/static/images/compiler.png"
       inkscape:export-xdpi="26.98"
       inkscape:export-ydpi="26.98" />
    <path
       style="fill:#4e9a06;fill-opacity:1;stroke:none"
       id="path3038"
       d="m 755.26021,428.04407 c -4.87173,0.29028 -8.20087,2.73611 -10.82481,6.66958 -2.33175,4.01332 -3.49717,8.51496 -3.16393,13.14133 0.48029,2.46245 1.61799,4.467 4.32119,3.8887 4.8024,-2.09894 7.91756,-6.47562 10.73499,-10.69889 2.23355,-3.71096 4.19725,-7.62413 5.26973,-11.83533 0.45202,0.0675 -0.25139,-2.88336 -0.13753,-2.40209 1.34565,1.47066 0.008,-0.28197 3.09068,0.043 0.2815,0.0297 0.0141,0.56595 0.0232,0.84886 0.0771,2.37415 0.0238,1.29227 0.26786,4.06377 0.98049,7.79968 3.09738,15.40894 5.06104,23.00567 2.5221,8.94898 4.27084,18.0346 4.82336,27.31475 -0.031,7.84888 -1.30267,12.05859 -8.57314,15.57964 -6.59747,1.96484 -13.2187,0.15579 -19.43728,-2.22437 -5.04213,-2.06061 -8.79262,-5.53514 -11.57509,-10.13174 -1.13411,-1.91899 -1.19027,-4.01609 -1.33677,-6.167 -0.0209,-0.15836 0.20306,-0.18793 0.22397,-0.0296 l 0,0 c 0.40457,2.02489 1.11601,3.74466 2.14024,5.55107 2.7138,4.15116 6.77877,6.76874 11.37268,8.54199 5.53964,1.9645 11.45973,3.44421 17.26674,1.70402 5.54438,-2.73685 6.2438,-6.64341 6.10989,-12.57911 -0.62584,-9.02574 -2.38848,-17.86253 -4.84864,-26.56869 -2.0187,-7.8104 -4.18349,-15.63955 -5.14003,-23.66642 -0.10891,-1.34375 -1.16851,-12.49172 3.89328,-6.94805 0.68211,1.5953 0.38771,3.28443 0.012,4.94178 -1.29064,4.51941 -3.4557,8.70119 -5.96041,12.66733 -3.33773,4.94 -7.07271,10.08296 -12.84822,12.27015 -5.31795,0.50125 -7.19438,-1.8883 -8.3564,-6.8356 -0.60396,-5.55378 0.53562,-10.92896 3.39224,-15.77124 3.58569,-5.19084 7.51566,-7.91951 13.92281,-8.48983 2.91062,-0.19539 3.18695,3.92084 0.27633,4.11623 z"
       inkscape:connector-curvature="0"
       inkscape:export-filename="/home/rick/projects/compiler-tutorial/static/images/compiler.png"
       inkscape:export-xdpi="26.98"
       inkscape:export-ydpi="26.98" />
    <path
       style="fill:#4e9a06;fill-opacity:1;stroke:none"
       id="path3040"
       d="m 780.11795,427.41261 c 4.15636,0.56835 8.29658,0.47466 12.17275,-1.20675 3.11832,-1.68335 4.46436,-4.76723 5.4896,-7.98807 0.45646,-2.08577 1.04673,-4.44649 -0.54941,-6.14556 -1.10915,-1.02006 -2.07242,-0.66309 -3.30138,-0.11713 -4.1589,2.15939 -7.25665,5.74221 -10.08577,9.38302 -3.68679,4.84053 -5.39842,10.51599 -6.17096,16.46491 -0.61609,5.69317 1.42061,10.19876 5.11517,14.35388 3.44907,3.44434 7.80661,5.51888 12.41777,6.8982 2.22765,0.61589 4.61179,0.74383 6.72279,1.73875 0.54497,0.36117 0.74316,-0.18791 1.16996,-0.55826 0.0349,-0.15589 0.25536,-0.10652 0.22045,0.0494 l 0,0 c 0.30974,1.28297 -0.15105,1.93399 -1.26151,2.64498 -2.49949,1.22593 -5.41304,0.60775 -8.01308,0.0493 -5.38196,-1.57814 -10.39213,-4.06517 -14.3182,-8.17398 -4.51508,-5.34059 -6.58606,-10.40084 -5.94693,-17.51304 0.88068,-6.65339 2.79862,-12.98607 6.92453,-18.40309 3.28244,-4.19462 6.89648,-8.25669 11.76354,-10.63797 3.02022,-1.11028 5.68384,-0.99879 7.88517,1.60587 1.85494,2.96907 1.68369,6.17856 0.64441,9.45462 -1.46771,4.08903 -3.36834,7.88852 -7.40636,9.97341 -4.4784,1.84989 -9.18196,2.20468 -13.97956,1.50927 -2.39124,-0.35851 -1.88423,-3.74025 0.50702,-3.38174 z"
       inkscape:connector-curvature="0"
       inkscape:export-filename="/home/rick/projects/compiler-tutorial/static/images/compiler.png"
       inkscape:export-xdpi="26.98"
       inkscape:export-ydpi="26.98" />
    <path
       style="fill:#4e9a06;fill-opacity:1;stroke:none"
       id="path3042"
       d="m 827.54595,394.01478 c 3.20934,6.88977 4.12023,14.51219 4.93785,21.98475 0.80391,8.04112 0.83773,16.12642 0.99646,24.19742 0.0512,4.40309 -0.14376,8.91494 2.38516,12.69692 1.90892,2.35883 4.7029,3.4165 7.50374,4.29904 0.81732,0.292 1.67871,0.637 2.53477,0.49166 1.6064,-1.13382 3.06476,-2.62421 3.88837,-4.40953 0.17382,-1.68211 0.0587,-0.81262 0.357,-2.60688 -0.026,-0.15761 0.19689,-0.19439 0.22289,-0.0368 l 0,0 c 0.9296,1.98133 0.74045,0.95896 0.63195,3.05445 -0.62968,2.58812 -1.43375,5.18063 -3.57809,6.93712 -1.7332,0.88594 -3.28041,0.74754 -5.15609,0.32842 -3.74275,-1.02605 -7.24652,-2.86575 -9.66224,-5.9856 -2.77487,-4.51743 -3.13519,-9.45712 -3.02043,-14.68589 -0.1825,-7.95721 -0.22821,-15.92637 -0.97437,-23.85795 -0.7685,-7.06177 -1.61934,-14.2228 -4.23782,-20.88146 -1.07883,-2.24213 2.09202,-3.76782 3.17085,-1.5257 z"
       inkscape:connector-curvature="0"
       inkscape:export-filename="/home/rick/projects/compiler-tutorial/static/images/compiler.png"
       inkscape:export-xdpi="26.98"
       inkscape:export-ydpi="26.98" />
    <path
       style="fill:#4e9a06;fill-opacity:1;stroke:none"
       id="path3044"
       d="m 810.55288,424.47829 c 6.34147,-0.61534 12.70325,-0.96381 19.06324,-1.31862 5.80893,-0.21019 11.44007,-1.65387 17.0736,-2.94784 1.805,-0.23965 3.52991,-1.0376 5.33408,-1.26694 0.11319,0.009 0.34978,-0.087 0.33956,0.0261 -0.31163,3.44877 0.19475,3.1726 -1.78746,2.5834 -0.15803,0.0234 -0.19107,-0.20011 -0.0331,-0.22348 l 0,0 c 2.86634,-1.77366 -0.45656,1.23455 2.35623,2.15224 -1.74253,0.37127 -3.50476,0.67636 -5.24475,1.06817 -5.88889,1.26552 -11.76148,2.77196 -17.8201,2.91588 -6.27904,0.28565 -12.56181,0.54419 -18.82899,1.03404 -2.84464,0.31986 -3.297,-3.70306 -0.45236,-4.02293 z"
       inkscape:connector-curvature="0"
       inkscape:export-filename="/home/rick/projects/compiler-tutorial/static/images/compiler.png"
       inkscape:export-xdpi="26.98"
       inkscape:export-ydpi="26.98" />
    <path
       style="fill:#4e9a06;fill-opacity:1;stroke:none"
       id="path3046"
       d="m 25.99091,364.9295 c -4.481239,0.54438 -8.716551,1.81834 -12.562495,4.17755 -3.5116468,2.34717 -6.4380618,5.39462 -9.1310264,8.6181 -2.141448,2.46815 -3.89337777,5.08741 -4.50760517,8.32139 -0.290566,3.48248 0.066125,7.03446 0.9870408,10.40172 1.05738867,2.74583 3.44086347,3.90676 6.07789597,4.76901 3.2752938,0.85649 6.6661658,0.99492 10.0326918,0.95448 3.215139,-0.1077 6.443672,-0.10358 9.584,0.64829 0.933432,0.37187 1.774268,0.45567 2.573261,1.07139 0.159047,0.0149 0.137988,0.23982 -0.02106,0.22493 l 0,0 c -0.872653,0.46893 -1.706031,0.46614 -2.663827,0.71922 -3.133911,0.3996 -6.296781,0.19213 -9.448466,0.31437 -3.693326,0.0157 -7.4086708,-0.18642 -10.9975878,-1.1302 -3.5703269,-1.22416 -6.59722237,-3.06186 -7.9518553,-6.78355 -1.09095,-3.82299 -1.6250402,-7.82793 -1.1663161,-11.7986 0.7933888,-3.71574 2.65355303,-6.81311 5.1361649,-9.68098 2.8988589,-3.4966 6.0905005,-6.75067 9.8738043,-9.30334 4.243596,-2.58823 8.881874,-4.09445 13.831627,-4.66978 2.224555,-0.25014 2.578307,2.89586 0.353752,3.146 z"
       inkscape:connector-curvature="0"
       inkscape:export-filename="/home/rick/projects/compiler-tutorial/static/images/compiler.png"
       inkscape:export-xdpi="26.98"
       inkscape:export-ydpi="26.98" />
    <path
       style="fill:#4e9a06;fill-opacity:1;stroke:none"
       id="path3048"
       d="m 47.598355,384.16707 c -2.114152,3.87452 -3.200579,7.85042 -1.460423,12.01847 2.036838,3.35205 5.0269,4.92021 8.860366,4.16713 5.048341,-2.1015 7.543661,-7.06478 9.73148,-11.75769 1.732182,-4.09341 3.384822,-8.30544 1.97935,-12.69873 -1.233466,-2.52123 -3.428143,-3.85422 -5.968239,-4.77405 -2.689418,-0.74432 -5.477029,-0.86217 -8.248695,-0.93042 -1.581681,-0.36906 -3.154357,-0.15372 -4.709137,-0.42643 -0.15192,0.0494 -0.221749,-0.16547 -0.06983,-0.21484 l 0,0 c 1.242771,-1.16618 3.063841,-1.43101 4.647616,-2.00285 3.174215,-0.36858 6.342209,-0.13984 9.396556,0.85737 3.363304,1.29099 6.125164,3.28715 7.515886,6.74893 1.357246,5.08163 -0.111785,9.8187 -2.2454,14.51592 -2.566735,5.47066 -5.578267,11.08485 -11.608402,13.24057 -5.41,0.76926 -8.741783,-1.10531 -11.598583,-5.74683 -2.239891,-5.26277 -1.322578,-9.42754 1.279516,-14.40569 0.996415,-1.76631 3.494353,-0.35716 2.497938,1.40914 z"
       inkscape:connector-curvature="0"
       inkscape:export-filename="/home/rick/projects/compiler-tutorial/static/images/compiler.png"
       inkscape:export-xdpi="26.98"
       inkscape:export-ydpi="26.98" />
    <path
       style="fill:#4e9a06;fill-opacity:1;stroke:none"
       id="path3050"
       d="m 88.413686,368.83725 c 1.274388,5.73565 2.492858,11.48365 3.744369,17.22437 0.496862,2.69372 1.227978,5.34405 1.672228,8.04784 0.01075,0.10034 0.03875,0.20031 0.03224,0.30101 -0.06215,0.96118 -1.979611,-0.0223 -2.859829,-0.41342 -0.15777,-0.0701 0.07964,-3.78301 0.08175,-3.9191 -0.15548,-5.10256 0.391937,-10.1533 1.407777,-15.14454 0.959781,-2.25057 1.167076,-6.89391 4.001961,-7.88503 0.49155,-0.17186 1.03686,-0.0978 1.55529,-0.14672 3.702338,1.06807 5.971508,4.37893 7.928198,7.48455 1.41626,2.53059 3.08131,4.91685 4.45665,7.4698 0.97217,2.03563 1.00356,1.3088 -0.97484,1.28211 0.31071,-2.95757 0.83143,-5.87957 1.53912,-8.76686 0.70457,-2.54738 1.71609,-4.99513 2.84981,-7.37806 0.53397,-1.45993 1.65482,-1.82844 3.09786,-1.48022 2.42828,2.15235 3.24258,5.99798 4.52366,8.93603 1.79652,3.83 3.58741,7.66255 5.37443,11.49695 0.12961,0.59136 1.25055,1.86461 0.65632,2.46128 -0.0921,0.054 -0.18428,0.10793 -0.27642,0.16189 0.45883,0.89548 -0.80758,1.54436 -1.2664,0.64888 l 0,0 c -0.10122,0.0362 -0.20243,0.0725 -0.30364,0.10875 -0.85304,0.0764 -1.15296,-1.57618 -1.54286,-2.06455 -1.90249,-3.82556 -3.76286,-7.6711 -5.52608,-11.56338 -0.95585,-2.21994 -2.60201,-5.23139 -2.79022,-7.451 0.50291,-0.12292 1.09925,-0.8048 0.45262,-0.0349 -1.17159,2.14884 -2.10651,4.41683 -2.8497,6.74849 -0.77677,3.14657 -1.10561,6.3634 -1.84141,9.50416 -2.66915,1.0542 -2.2831,0.77577 -3.48742,-1.30201 -1.40859,-2.47723 -3.05556,-4.81117 -4.41803,-7.31745 -1.48909,-2.38383 -3.11229,-4.89064 -5.662558,-6.25363 -1.42908,-1.22337 -2.46833,5.25934 -2.77399,5.90287 -1.00664,4.80545 -1.485642,9.66268 -1.284199,14.57895 0.06302,3.49885 1.231779,4.00664 -2.806949,5.36518 -0.215532,0.0725 -0.03623,-0.67388 -0.235782,-0.64016 -0.805485,-2.6388 -1.256316,-5.37398 -1.910295,-8.05063 -1.226496,-5.73094 -2.477936,-11.45636 -3.63751,-17.20139 -0.502073,-2.17354 2.571778,-2.88358 3.073851,-0.71004 z"
       inkscape:connector-curvature="0"
       inkscape:export-filename="/home/rick/projects/compiler-tutorial/static/images/compiler.png"
       inkscape:export-xdpi="26.98"
       inkscape:export-ydpi="26.98" />
    <path
       style="fill:#4e9a06;fill-opacity:1;stroke:none"
       id="path3052"
       d="m 145.76182,364.69342 c 1.87219,6.13679 3.32999,12.38744 4.76867,18.63654 1.37954,6.55324 3.04017,13.04017 4.64928,19.53904 0.63535,2.2941 1.05603,4.65665 1.79937,6.91662 -1.08331,0.11137 -2.18303,0.55254 -3.24992,0.33411 -0.004,-8.1e-4 -3.09064,-8.66315 -3.27414,-9.20256 -1.98892,-5.74862 -3.38176,-11.673 -4.42711,-17.65831 -1.11429,-5.39009 -0.55023,-10.61944 1.27324,-15.7536 1.54834,-3.71449 4.2455,-6.39753 7.60897,-8.47723 2.17748,-1.25359 4.21367,-1.70997 6.47418,-0.49053 1.7735,1.38677 2.94396,3.19284 3.09061,5.44327 -1.3815,3.74242 -5.44877,5.86147 -8.55567,8.09903 -3.2778,2.29213 -6.43163,4.75706 -9.70968,7.04806 -0.97651,0.6631 -2.3248,1.40237 -3.32594,0.42302 -0.32473,-0.22816 -0.16583,-0.45826 -0.22056,-0.79728 -0.15403,-0.0423 -0.0941,-0.26018 0.0599,-0.21783 l 0,0 c 0.21426,-0.22521 0.56427,-0.42126 0.49568,-0.54887 -0.17145,-0.7946 0.5814,-0.93217 1.13823,-1.4125 3.19477,-2.41244 6.28216,-4.97007 9.57698,-7.25159 2.37512,-1.71027 4.85893,-3.6049 7.09948,-5.34344 0.39125,-0.87065 -0.90829,-1.97845 -1.39755,-2.56755 -0.899,-0.82216 -2.08471,-0.15454 -3.06153,0.25737 -2.71295,1.74728 -4.9972,3.89062 -6.29817,6.91879 -1.71771,4.5916 -2.15514,9.2849 -1.16301,14.127 1.03646,5.82316 2.37679,11.58876 4.28491,17.19455 0.93328,2.70789 1.92065,5.38832 2.92593,8.06972 0.14737,0.39308 0.68297,0.8441 0.43414,1.18221 -0.66422,0.90251 -1.82592,1.29958 -2.73888,1.94938 -1.0224,-2.37045 -1.45538,-4.94012 -2.15708,-7.41328 -1.64276,-6.52145 -3.31152,-13.03736 -4.66981,-19.62607 -1.33111,-6.21881 -2.65243,-12.44402 -4.38756,-18.56593 -0.57426,-2.09095 2.38279,-2.90309 2.95705,-0.81214 z"
       inkscape:connector-curvature="0"
       inkscape:export-filename="/home/rick/projects/compiler-tutorial/static/images/compiler.png"
       inkscape:export-xdpi="26.98"
       inkscape:export-ydpi="26.98" />
    <path
       style="fill:#4e9a06;fill-opacity:1;stroke:none"
       id="path3054"
       d="m 180.33112,357.11888 c 0.9316,5.56891 1.67182,11.16339 2.17409,16.78687 -0.11275,2.94391 1.10854,6.07057 0.52046,8.99103 -0.54349,0.93677 -0.39556,0.74215 -1.68588,0.39114 -0.10871,-0.11704 0.0568,-0.27078 0.16553,-0.15373 l 0,0 c -0.52286,0.55042 -0.50817,0.64583 -1.0473,0.1187 -1.33303,-2.73635 -0.69846,-6.13533 -1.2929,-9.04918 -0.4942,-5.54678 -1.21959,-11.06723 -2.12405,-16.56235 -0.36946,-2.32642 2.9206,-2.8489 3.29005,-0.52248 z"
       inkscape:connector-curvature="0"
       inkscape:export-filename="/home/rick/projects/compiler-tutorial/static/images/compiler.png"
       inkscape:export-xdpi="26.98"
       inkscape:export-ydpi="26.98" />
    <path
       style="fill:#4e9a06;fill-opacity:1;stroke:none"
       id="path3056"
       d="m 186.24218,333.11104 c -0.4874,3.23323 -0.81093,6.50378 -1.8444,9.62042 -0.24587,0.59811 -0.48355,1.15714 -1.07948,1.44905 -0.74258,1.87036 -3.38766,0.82018 -2.64508,-1.05018 l 0,0 c -0.36614,-0.4001 -0.21167,-0.9203 -0.15833,-1.4211 0.5749,-3.0448 1.18986,-6.08258 1.61712,-9.15389 0.39294,-2.90633 4.50311,-2.35063 4.11017,0.5557 z"
       inkscape:connector-curvature="0"
       inkscape:export-filename="/home/rick/projects/compiler-tutorial/static/images/compiler.png"
       inkscape:export-xdpi="26.98"
       inkscape:export-ydpi="26.98" />
    <path
       style="fill:#4e9a06;fill-opacity:1;stroke:none"
       id="path3058"
       d="m 196.61454,323.95515 c 1.17944,6.84608 1.61385,13.79393 2.07985,20.717 0.44845,7.25989 0.39685,14.5308 0.1538,21.79574 -0.18115,4.51115 -0.2742,9.02552 -0.46199,13.53636 0.0164,0.0986 -0.14191,3.34398 -0.86278,3.01837 -0.55254,-0.24958 -0.90941,-0.80207 -1.36412,-1.20311 -0.0688,-0.38572 -0.13761,-0.77145 -0.20642,-1.15717 -0.0459,-0.153 0.17044,-0.21795 0.21637,-0.065 l 0,0 c 0.15292,0.35291 0.30585,0.70582 0.45877,1.05873 -1.88666,2.04916 -1.1893,-0.3217 -1.38503,-1.7108 -0.0181,-4.53117 0.12313,-9.06079 0.29783,-13.58816 0.23971,-7.15464 0.3118,-14.31857 -0.13748,-21.46803 -0.44152,-6.84016 -0.89539,-13.68542 -1.84363,-20.47843 -0.32212,-2.16009 2.73271,-2.61564 3.05483,-0.45555 z"
       inkscape:connector-curvature="0"
       inkscape:export-filename="/home/rick/projects/compiler-tutorial/static/images/compiler.png"
       inkscape:export-xdpi="26.98"
       inkscape:export-ydpi="26.98" />
    <path
       style="fill:#4e9a06;fill-opacity:1;stroke:none"
       id="path3060"
       d="m 207.89991,367.93536 c -0.59116,4.47858 -0.71304,8.95861 -0.0748,13.43099 0.37993,2.43184 1.05203,4.19102 3.22287,5.38492 2.20542,0.99844 4.61837,0.91108 6.96764,0.64382 1.54976,0.12032 3.21756,-1.00987 4.74327,-0.63713 0.39102,0.22119 0.51569,0.60226 0.68468,0.98844 0.83446,-0.40647 1.40929,0.77364 0.57483,1.1801 l 0,0 c 0.002,0.45576 0.0448,0.91522 -0.24185,1.31497 -1.38041,1.19597 -3.67247,1.00891 -5.32414,1.51099 -3.30641,0.29591 -6.60497,0.21261 -9.61541,-1.37529 -3.10277,-2.00121 -4.70623,-4.70083 -5.27644,-8.36606 -0.76601,-4.83417 -0.62792,-9.68813 -0.0262,-14.5411 0.32905,-3.08687 4.69455,-2.62152 4.3655,0.46535 z"
       inkscape:connector-curvature="0"
       inkscape:export-filename="/home/rick/projects/compiler-tutorial/static/images/compiler.png"
       inkscape:export-xdpi="26.98"
       inkscape:export-ydpi="26.98" />
    <path
       style="fill:#4e9a06;fill-opacity:1;stroke:none"
       id="path3062"
       d="m 208.04752,368.7979 c 2.91881,-1.37345 6.10366,-2.56989 8.3681,-4.95205 0.54859,-0.68686 0.87398,-1.48113 0.73578,-2.35928 -0.29065,-0.69423 0.16253,0.55906 0.17939,0.59665 -0.37238,0.11307 -1.39145,-0.023 -1.94021,-0.0507 -0.96102,-0.10934 -1.91834,-0.12429 -2.87852,-0.0159 -0.9172,0.0931 -1.63135,0.53568 -2.34465,1.08475 -0.9964,0.76884 -1.88317,1.66958 -2.7582,2.57113 -0.54589,0.54927 -0.84402,1.255 -1.22177,1.91234 -0.35751,0.28787 -0.85107,0.10007 -1.28296,0.0382 -0.0748,0.89386 -1.33896,0.788 -1.26411,-0.10587 l 0,0 c -0.48631,-0.27665 -1.10062,-0.49296 -0.99521,-1.16441 0.30531,-1.28177 1.01866,-2.40941 1.87196,-3.40149 1.0124,-1.10538 2.06887,-2.18062 3.2908,-3.05767 1.27884,-0.91377 2.63444,-1.68098 4.22716,-1.86372 1.19786,-0.14902 2.39827,-0.18079 3.60413,-0.11533 1.19204,0.0829 2.43519,0.0991 3.54903,0.57167 1.05108,0.66211 1.79574,1.5441 1.73297,2.8575 -0.011,1.89514 -0.63755,3.62364 -1.89366,5.06916 -2.69043,2.67757 -6.14334,4.24446 -9.5705,5.78901 -2.40698,0.99668 -3.81651,-2.40729 -1.40953,-3.40398 z"
       inkscape:connector-curvature="0"
       inkscape:export-filename="/home/rick/projects/compiler-tutorial/static/images/compiler.png"
       inkscape:export-xdpi="26.98"
       inkscape:export-ydpi="26.98" />
    <path
       style="fill:#4e9a06;fill-opacity:1;stroke:none"
       id="path3064"
       d="m 243.87583,360.03905 c -0.36365,5.00002 -0.68077,9.99062 -0.50338,15.00428 0.22982,3.56723 0.71602,7.11305 1.33519,10.6319 0.45301,1.90996 0.77237,3.89728 1.49732,5.73078 0.0558,0.1109 0.11153,0.22179 0.1673,0.33268 0.005,0.005 0.0224,0.0148 0.0152,0.0164 -4.3103,1.00361 -3.54453,2.18622 -4.38884,-0.25673 -0.30782,-0.89066 -0.89871,-2.65759 -1.18231,-3.50211 -1.14094,-3.60592 -2.60695,-7.09696 -3.74441,-10.70304 -0.89197,-2.78413 -0.8278,-5.7025 -0.66251,-8.58408 0.16604,-2.806 0.78919,-5.5444 1.60192,-8.22535 0.88579,-2.49406 2.59214,-4.52773 4.49072,-6.31961 1.79712,-1.48771 3.95301,-2.18684 6.21809,-2.54521 1.4156,-0.0902 2.83041,-0.36416 4.24926,-0.29863 1.90864,0.29682 1.20724,1.50376 0.57021,2.92727 -0.0823,0.13688 -0.27593,0.0204 -0.19359,-0.11644 l 0,0 c -0.15248,0.48051 -0.30061,1.37371 -0.54258,1.75288 -1.16538,0.0458 -2.33191,0.0834 -3.49695,0.14147 -1.38656,0.13105 -2.73506,0.45539 -3.86166,1.3219 -1.38939,1.24775 -2.67089,2.65862 -3.38251,4.41117 -0.76836,2.34249 -1.32011,4.74446 -1.52436,7.20731 -0.16088,2.37754 -0.28301,4.79169 0.44827,7.09592 1.12361,3.58221 2.57457,7.05239 3.68869,10.63869 0.3854,1.14767 0.7603,2.29889 1.1509,3.4448 0.79064,2.31957 0.9287,1.20173 -3.0789,3.38036 -0.25491,0.13858 -0.0546,-1.13903 -0.30436,-0.81548 -0.64767,-2.0899 -1.2702,-4.18634 -1.62425,-6.35146 -0.64983,-3.70186 -1.14855,-7.43455 -1.35968,-11.1892 -0.15198,-5.18281 0.0887,-10.37687 0.77569,-15.5187 0.27448,-2.57498 3.91606,-2.1868 3.64157,0.38818 z"
       inkscape:connector-curvature="0"
       inkscape:export-filename="/home/rick/projects/compiler-tutorial/static/images/compiler.png"
       inkscape:export-xdpi="26.98"
       inkscape:export-ydpi="26.98" />
    <path
       inkscape:export-ydpi="33.238823"
       inkscape:export-xdpi="33.238823"
       inkscape:export-filename="/home/rick/projects/compiler-tutorial/static/images/acon-compiler.png"
       inkscape:connector-curvature="0"
       d="m -10.029162,855.92934 c 7.0631596,21.04497 11.6862396,42.79387 16.3100696,64.47199 7.6269904,36.19501 13.0359304,72.78722 18.5675804,109.34327 3.17438,20.3593 6.50818,40.7611 12.09634,60.6187 1.68977,7.4243 6.02229,13.8222 8.53782,20.911 0.133,1.9124 0.25958,0.9828 -0.37887,2.7889 0.34304,1.0958 -1.20668,1.581 -1.54972,0.4851 l 0,0 c -1.41834,0.031 -0.64193,0.1761 -2.23006,-0.8014 -5.31593,-6.1077 -7.75481,-14.2076 -10.36056,-21.7107 -5.59348,-20.1187 -9.05138,-40.7476 -12.20632,-61.3698 C 13.242838,994.22507 7.8584976,957.74864 0.44908762,921.62986 -4.0259724,900.11634 -8.5532424,878.56673 -15.063022,857.55606 c -1.15026,-3.55948 3.8836,-5.18619 5.03386,-1.62672 z"
       id="path3066"
       style="fill:#3465a4;fill-opacity:1;stroke:none" />
    <path
       inkscape:export-ydpi="33.238823"
       inkscape:export-xdpi="33.238823"
       inkscape:export-filename="/home/rick/projects/compiler-tutorial/static/images/acon-compiler.png"
       inkscape:connector-curvature="0"
       d="m -20.425152,861.79617 c 15.4708396,1.38579 30.98367,1.77459 46.50701,1.94235 30.18511,0.19447 60.342357,-0.82426 90.455932,-2.82759 34.43931,-2.57198 68.59454,-7.79773 102.71287,-12.99193 17.73138,-2.81042 35.53281,-5.15053 53.43787,-6.48447 9.60331,-0.44255 19.19909,-0.96812 28.78827,-1.65034 4.79273,-0.4547 9.57491,-0.96242 14.38557,-1.17283 3.13055,0.0275 5.77653,1.45808 7.78637,3.77399 3.28279,7.99828 3.14472,17.19993 3.70362,25.71976 1.15409,23.03577 0.9532,46.11939 0.97245,69.17773 -0.0371,28.10485 -0.19546,56.20783 0.52528,84.30536 0.71152,21.4229 2.5522,42.7834 3.73839,64.1807 0.71121,10.1633 0.76369,20.3664 1.7623,30.5087 1.01522,4.4727 -1.21349,6.222 -5.68639,6.1644 -7.37905,0.6049 -14.57894,2.6931 -21.85238,4.0548 -17.98371,2.8074 -36.16817,4.0384 -54.27564,5.7797 -22.21335,2.3434 -44.40397,4.8351 -66.66344,6.7054 -23.48142,1.8421 -46.95802,3.7515 -70.47381,5.1004 -19.170937,0.9464 -38.366381,1.7396 -57.548542,0.7852 -10.85464,-0.5774 -21.50025,-2.6747 -31.85455,-5.9048 -5.41661,-1.6785 -10.60948,-4.0502 -16.1274304,-5.3941 -2.70225,-0.6663 -5.48702,-0.825 -8.16341,-1.5975 -1.66579998,-0.7673 3.76687,-0.1986 -1.39629998,-2.9195 -0.20308,0.1324 -0.39035,-0.1548 -0.18727,-0.2872 l 0,0 c 0.35667,-3.1235 -0.61691,-4.9576 3.51989998,-4.0564 2.66711,0.6309 5.37564,1.0427 8.0475504,1.6539 5.63622,1.4647 10.99302,3.7629 16.51444,5.5908 9.75054,3.1015 19.7893,4.9869 30.02266,5.575 18.916516,0.9957 37.855022,0.209 56.765082,-0.6492 23.45629,-1.3104 46.86824,-3.2543 70.29353,-5.0208 22.23994,-1.8034 44.44978,-3.9267 66.65783,-6.0832 17.93928,-1.5515 35.94733,-2.6483 53.7673,-5.305 7.64544,-1.3637 15.258,-3.4334 23.02926,-3.8027 1.53195,0.02 1.7662,0.018 1.75074,0.044 -2.28291,3.7899 -1.65978,2.4483 -1.8796,0.028 -0.63745,-10.2089 -1.35393,-20.4127 -1.92144,-30.626 -1.30861,-21.4537 -3.07391,-42.8827 -3.83002,-64.3666 -0.75738,-28.1492 -0.57419,-56.30436 -0.52734,-84.46143 0.008,-22.94887 0.20459,-45.91104 -0.62797,-68.84863 -0.39518,-7.69627 -0.5918,-15.46253 -2.04234,-23.0523 -0.61066,-1.3561 -2.11594,-1.79503 -3.5059,-1.87561 -4.77228,0.36487 -9.53427,0.85167 -14.30216,1.26786 -9.58796,0.76348 -19.18899,1.25371 -28.79648,1.70131 -17.77851,1.27103 -35.45604,3.56509 -53.06272,6.32445 -34.2561,5.21507 -68.55646,10.44015 -103.14207,12.93753 -30.241452,1.92319 -60.523252,2.93136 -90.831082,2.40211 -15.61021,-0.26415 -31.2213404,-0.66668 -46.75605,-2.35575 -2.8207,-0.21928 -2.51059,-4.20836 0.31011,-3.98908 z"
       id="path3068"
       style="fill:#3465a4;fill-opacity:1;stroke:none" />
    <path
       inkscape:export-ydpi="33.238823"
       inkscape:export-xdpi="33.238823"
       inkscape:export-filename="/home/rick/projects/compiler-tutorial/static/images/acon-compiler.png"
       inkscape:connector-curvature="0"
       d="m -227.50786,1015.8995 c 11.43196,-2.6354 22.75377,-5.7094 34.04408,-8.8894 12.50823,-3.6923 25.30677,-6.2369 37.97599,-9.29313 11.4763,-2.67631 22.56827,-6.61903 33.58274,-10.7488 6.65234,-2.63895 13.42285,-4.91401 20.40052,-6.50577 7.108228,-1.4681 14.256018,-2.7329 21.418848,-3.90228 6.84993,-1.09961 13.76479,-1.68216 20.64575,-2.53977 5.35345,-0.69767 10.63576,-1.82421 15.97774,-2.59159 4.66519,-0.60919 9.342,-1.12577 14.00821,-1.73135 4.15347,-0.45004 8.29778,-0.98953 12.46172,-1.33611 1.23533,-0.14633 2.49668,-0.0527 3.70274,-0.3689 3.25788,5.59703 2.19175,4.94619 -0.58169,9.76496 -3.97684,7.11477 -7.37056,14.53255 -11.05177,21.80134 -4.82059,9.2451 -10.39142,18.0655 -15.94609,26.8791 -2.93291,4.6316 -5.87738,9.2639 -9.12421,13.6843 -1.57814,3.4508 -6.56299,0.4958 -4.25385,-3.7661 3.05566,-5.7345 6.25555,-11.3819 9.61413,-16.945 4.76277,-7.6657 9.99881,-15.0221 14.39032,-22.91303 2.24215,-4.59332 4.33211,-9.27244 6.29404,-13.99426 0.32453,-0.96399 0.96334,-2.02521 0.78876,-3.07491 0.8181,5.06565 -0.49711,3.05386 -2.95979,1.33211 -3.51426,-2.31209 -7.13803,-4.44255 -10.62853,-6.79502 -4.74715,-3.48244 -10.42134,-4.97368 -16.04092,-6.38121 -11.21387,-2.66995 -22.68599,-3.9735 -34.12706,-5.21631 -9.71463,-0.86876 -19.365148,-2.13333 -28.837538,-4.47342 -2.07535,-1.15597 -5.85086,-0.75763 -7.4923,-2.71004 -0.27684,-1.04091 0.17164,-1.88894 0.75556,-2.70009 -0.11761,0.212 -0.41742,0.0457 -0.29982,-0.16632 l 0,0 c 0.84362,-1.38999 1.60852,-2.59514 2.16017,-4.09111 1.88846,-0.88033 4.93212,1.95216 6.89594,1.59607 9.10051,2.30794 18.381118,3.60821 27.724858,4.49314 11.81073,1.37684 23.66338,2.76047 35.22236,5.64146 6.46576,1.77009 13.04415,3.52348 18.42955,7.72212 3.43146,2.48975 7.0583,4.67932 10.45937,7.20862 2.92135,2.16156 4.08533,2.70584 4.64298,6.99564 -0.84954,0.73848 -1.29263,1.82441 -1.78766,2.81255 -2.27755,4.75488 -4.35904,9.59943 -6.7016,14.32121 -4.46243,7.915 -9.72074,15.3218 -14.5321,23.0235 -3.32896,5.5116 -6.50341,11.1061 -9.5253,16.792 -2.09601,3.6395 -7.43514,0.6833 -4.74707,-1.837 2.90888,-4.5559 5.93132,-9.0399 8.71693,-13.6738 5.42856,-8.6842 10.95724,-17.3259 15.68603,-26.42018 3.76225,-7.36748 7.1969,-14.9109 11.33758,-22.07769 2.72607,-4.44784 1.65549,-6.28113 5.86644,-1.93984 -1.1919,-0.15599 -2.38258,0.20688 -3.57586,0.27412 -4.1014,0.47137 -8.20581,0.91622 -12.30738,1.38587 -4.64451,0.60238 -9.29967,1.1172 -13.94135,1.73912 -5.37655,0.76847 -10.69094,1.9152 -16.08041,2.60519 -6.81671,0.81146 -13.66168,1.39375 -20.44621,2.46039 -7.06645,1.18541 -14.11907,2.44701 -21.139758,3.88198 -6.77147,1.49709 -13.33341,3.69477 -19.77963,6.25085 -11.19845,4.19854 -22.48766,8.18282 -34.16667,10.85759 -12.62052,3.0087 -25.37885,5.4626 -37.83755,9.1188 -11.37478,3.1735 -22.76922,6.2806 -34.31051,8.8013 -3.08366,0.6935 -4.06439,-3.6674 -0.98073,-4.3609 z"
       id="path3070"
       style="fill:#ce5c00;fill-opacity:1;stroke:none" />
    <path
       inkscape:export-ydpi="33.238823"
       inkscape:export-xdpi="33.238823"
       inkscape:export-filename="/home/rick/projects/compiler-tutorial/static/images/acon-compiler.png"
       inkscape:connector-curvature="0"
       d="m 351.26335,967.77189 c 9.03172,-0.59219 18.06079,-1.21025 27.08207,-1.94647 11.58867,-0.91623 23.12267,-2.38032 34.63193,-3.99317 7.57905,-1.1309 15.18796,-2.00094 22.84142,-2.38709 4.81639,-0.2203 9.62058,-0.63764 14.43648,-0.86168 5.08291,-0.21382 10.17047,-0.23609 15.25511,-0.40146 5.59034,-0.15425 11.18222,-0.23863 16.77414,-0.3074 4.58391,-0.04 9.16822,-0.0476 13.75231,-0.0475 4.36575,0.005 8.73145,0.0106 13.09722,0.0113 6.14088,7e-4 12.28176,6.3e-4 18.42264,6.7e-4 4.13015,-0.04 8.26073,0.0829 12.38894,-0.0753 10.86473,0.0766 2.18514,7.98505 -0.0764,9.89228 -8.05794,6.26288 -15.70315,13.02592 -23.32582,19.80435 -8.91907,7.89369 -17.98898,15.61408 -26.61004,23.83558 -4.24979,4.1935 -8.53663,8.3499 -12.78867,12.5411 -2.07535,2.1067 -4.13458,4.2354 -6.35899,6.1867 -0.13483,0.1092 -0.26966,0.2184 -0.40449,0.3277 -0.0156,0.011 -0.0357,0.05 -0.0467,0.034 -4.00732,-5.7421 -4.98904,-3.6821 -2.2798,-6.4318 1.35461,-1.3749 2.68949,-2.769 4.03583,-4.152 7.19317,-7.2455 14.39318,-14.4831 21.66381,-21.65095 7.06416,-7.23751 14.32258,-14.27385 21.68317,-21.20785 6.75769,-5.99647 13.16148,-12.33035 18.92066,-19.29173 2.40814,-2.85747 4.88809,-5.65296 7.33052,-8.48083 0.0888,-0.11025 0.25116,-0.47152 0.26649,-0.33076 0.73073,6.70737 0.71136,7.00342 -3.02576,3.5807 -3.3109,-2.72946 -7.06391,-4.87212 -10.83086,-6.89823 -6.7752,-3.46695 -14.16228,-5.40218 -21.51649,-7.19498 -6.63391,-1.22933 -12.68998,-4.13187 -18.82391,-6.79279 -5.1999,-2.19791 -10.63437,-3.76007 -16.05564,-5.3027 -1.92673,-0.74526 -4.76171,-0.33327 -4.65716,-2.84659 0.50451,-2.02202 1.04006,-1.58472 -0.003,-2.07423 -0.21735,0.1074 -0.36923,-0.19997 -0.15188,-0.30737 l 0,0 c 1.00796,-1.29845 0.41327,-0.46135 1.63725,-2.60941 1.20069,-2.16202 3.29036,-0.37577 5.3078,-0.0313 5.84357,1.50894 11.66171,3.18831 17.19494,5.63117 5.71604,2.48135 11.34018,5.25424 17.52484,6.40548 7.995,2.02929 16.04823,4.15789 23.34562,8.11966 4.33853,2.3754 8.716,4.82329 12.39606,8.17097 0.58933,0.56448 4.05487,5.28751 2.22898,7.11116 -2.62947,2.44785 -4.93708,5.21902 -7.31114,7.90705 -5.98488,7.09892 -12.51864,13.6639 -19.50326,19.78735 -7.34766,6.87417 -14.54126,13.90356 -21.60848,21.06628 -7.25141,7.1489 -14.46159,14.3384 -21.61852,21.5821 -0.78403,0.7814 -1.56805,1.5628 -2.35208,2.3443 -0.60032,0.6177 -1.19131,1.2447 -1.80096,1.8533 -2.73739,2.7325 -1.34945,1.7399 -6.78745,-2.0908 -0.24407,-0.1719 0.9982,-0.5498 0.54305,-0.7121 1.89241,-2.3669 3.99015,-4.5602 6.09882,-6.7337 4.2778,-4.2148 8.59503,-8.3897 12.85195,-12.6259 8.65146,-8.30368 17.75142,-16.11478 26.67443,-24.12314 7.64127,-6.86667 15.31522,-13.70082 23.37961,-20.07264 0.55901,-0.46999 1.12504,-0.93176 1.67703,-1.40997 0.26446,-0.22912 0.53024,-0.96472 0.77178,-0.71155 6.04415,6.33529 5.14324,5.23111 2.405,5.13398 -4.12823,-0.15822 -8.25884,-0.0353 -12.38901,-0.0753 -6.14124,-3e-5 -12.28249,4e-5 -18.42373,-6.6e-4 -4.3654,-7e-4 -8.73075,0.003 -13.09613,0.005 -4.5632,-2e-5 -9.12638,-0.0124 -13.68956,0.0138 -5.54348,0.03 -11.08639,0.1219 -16.62662,0.3213 -5.03777,0.13551 -10.07606,0.19617 -15.11293,0.36228 -4.81385,0.2587 -9.62023,0.6296 -14.4365,0.84492 -7.44404,0.37142 -14.84867,1.21576 -22.21825,2.32793 -11.64374,1.63091 -23.31267,3.09872 -35.037,4.02119 -9.05499,0.73881 -18.11845,1.34165 -27.18497,1.92055 -4.92525,0.33064 -5.39284,-6.63471 -0.46759,-6.96535 z"
       id="path3072"
       style="fill:#ce5c00;fill-opacity:1;stroke:none" />
    <path
       style="fill:#4e9a06;fill-opacity:1;stroke:none"
       id="path3146"
       d="m 619.79512,954.46592 c -0.86997,-7.34486 -1.43119,-14.71767 -1.81861,-22.10211 -0.68271,-9.13405 1.2677,-17.89412 4.08303,-26.50437 2.40034,-6.36028 4.79424,-12.90566 9.19902,-18.17783 3.42305,-3.40367 7.54478,-3.55597 12.02424,-2.69763 6.96061,1.91498 11.28623,7.20719 15.05779,13.01039 4.8176,8.2095 6.79533,17.5306 8.7292,26.73338 1.62592,7.65792 2.99217,15.36354 4.2062,23.09612 0.67885,4.36479 1.33659,8.73705 1.7328,13.13791 0.15831,3.272 0.59497,2.9368 -3.17069,3.11158 -0.17646,-0.2703 -0.35292,-0.5406 -0.52938,-0.8109 -0.14454,-0.068 -0.0483,-0.27243 0.0962,-0.20441 l 0,0 c 0.35073,-0.0222 0.70146,-0.0444 1.05219,-0.0666 -2.54957,1.31193 -1.84649,0.7944 -2.1582,-1.57078 -0.45388,-4.29961 -1.17718,-8.56996 -1.78503,-12.84922 -1.20131,-7.65303 -2.55321,-15.27935 -4.16275,-22.8584 -1.7909,-8.63287 -3.60283,-17.38792 -8.0359,-25.12732 -3.02543,-4.75078 -6.38668,-9.2734 -11.99343,-11.04705 -2.74806,-0.65321 -5.32353,-0.98892 -7.53617,1.11274 -4.04952,4.75906 -5.90174,10.98796 -8.22766,16.67694 -2.62711,8.05651 -4.48691,16.23758 -3.81169,24.78551 0.38142,7.28807 0.94536,14.56076 1.82728,21.80723 0.38525,3.37887 -4.3932,3.92369 -4.77844,0.54482 z"
       inkscape:connector-curvature="0"
       inkscape:export-filename="/home/rick/projects/compiler-tutorial/static/images/acon-compiler.png"
       inkscape:export-xdpi="33.238823"
       inkscape:export-ydpi="33.238823" />
    <path
       style="fill:#4e9a06;fill-opacity:1;stroke:none"
       id="path3148"
       d="m 616.25884,931.46379 c 5.54639,-1.5385 11.17836,-2.76228 16.81548,-3.91864 4.66161,-1.01284 9.4068,-1.48194 14.16206,-1.74029 3.50496,-0.11706 7.00968,-0.2195 10.49547,-0.62181 2.27716,-0.33003 4.38351,-1.28475 6.60274,-1.85333 0.87832,-0.31905 1.06852,-0.0514 1.40773,0.74423 1.07183,-0.24644 1.42033,1.26935 0.34851,1.51578 l 0,0 c 0.27344,0.78375 0.36166,1.09548 -0.50953,1.3706 -2.37565,1.04235 -4.81171,2.02521 -7.40785,2.33561 -3.57175,0.35784 -7.15775,0.4158 -10.7453,0.45326 -4.56794,0.19493 -9.12666,0.59257 -13.61269,1.51745 -5.62223,1.08567 -11.22686,2.26138 -16.85475,3.3181 -2.20685,0.4963 -2.90873,-2.62466 -0.70187,-3.12096 z"
       inkscape:connector-curvature="0"
       inkscape:export-filename="/home/rick/projects/compiler-tutorial/static/images/acon-compiler.png"
       inkscape:export-xdpi="33.238823"
       inkscape:export-ydpi="33.238823" />
    <path
       style="fill:#4e9a06;fill-opacity:1;stroke:none"
       id="path3150"
       d="m 681.30491,930.22605 c 2.05271,5.34457 3.81279,10.78753 5.4515,16.27075 1.35877,4.35011 2.17675,8.83398 3.20934,13.26441 1.81909,2.74557 -2.25751,4.50664 -3.39581,0.80191 -1.28591,-3.61624 -2.39863,-7.27152 -3.26929,-11.00888 -1.01424,-4.86605 -1.19912,-9.83846 -1.09503,-14.79131 0.16196,-4.71591 1.01557,-9.3495 2.7166,-13.74774 1.32034,-3.20269 3.93581,-5.02644 7.08165,-6.16888 1.75552,-0.38568 3.78039,-1.03124 5.54444,-0.35294 0.59794,0.49866 1.02174,0.70505 0.98353,1.45531 0.14659,0.0634 0.0569,0.27077 -0.0897,0.20732 l 0,0 c -0.31872,0.46255 -0.60168,0.48279 -0.94483,0.94013 -1.34644,0.61194 -2.97718,0.36083 -4.34644,0.95991 -2.22745,0.77795 -4.04616,1.9976 -5.04038,4.2256 -1.63475,3.99064 -2.36842,8.25262 -2.5633,12.55351 -0.1041,4.67948 0.057,9.38026 1.01276,13.97864 0.81134,3.66952 1.95381,7.23191 3.1649,10.78764 1.23353,4.07461 -3.52442,4.45856 -2.98622,0.78495 -0.67753,-4.39765 -1.81466,-8.70967 -3.0065,-12.99172 -1.59698,-5.41563 -3.29562,-10.80087 -5.0762,-16.15897 -0.71392,-1.87314 1.93509,-2.88278 2.64902,-1.00964 z"
       inkscape:connector-curvature="0"
       inkscape:export-filename="/home/rick/projects/compiler-tutorial/static/images/acon-compiler.png"
       inkscape:export-xdpi="33.238823"
       inkscape:export-ydpi="33.238823" />
    <path
       style="fill:#4e9a06;fill-opacity:1;stroke:none"
       id="path3152"
       d="m 732.82773,928.69688 c -5.48269,2.38799 -9.38785,6.54118 -12.21927,11.69773 -1.98478,4.23698 -2.91165,8.77382 -1.83608,13.36041 0.52516,1.08157 1.25898,3.84559 2.9004,3.71765 2.25836,-0.89177 3.35864,-3.06262 4.41092,-5.09806 2.48328,-5.85788 3.61518,-12.16281 4.65688,-18.40446 1.11555,-6.50153 1.27221,-13.08988 0.72892,-19.64928 -0.57583,-5.08608 -1.96332,-10.02348 -3.42865,-14.91167 -0.78824,-2.56259 -1.66558,-5.10337 -2.72111,-7.56921 -0.14147,-0.30411 -0.2709,-0.61827 -0.4622,-0.89376 1.51371,-0.23094 3.02819,-0.92881 4.54112,-0.69284 0.5058,0.0789 0.30013,0.97888 0.44352,1.4703 1.06274,3.64221 1.89284,7.32482 2.68446,11.03415 1.59882,8.44631 3.75465,16.74623 6.65388,24.83677 2.50252,6.3501 5.58108,12.4795 9.3717,18.15789 1.15777,1.95824 2.78386,3.56612 4.13434,5.37385 0.23216,0.32358 0.14723,0.54164 0.0173,0.88557 1.5092,0.18895 1.24197,2.32328 -0.26723,2.13433 l 0,0 c -0.6004,0.41768 -1.11947,0.41918 -1.82065,0.18628 -2.64783,-1.14315 -4.22856,-3.77594 -5.94093,-5.96421 -4.06489,-5.96747 -7.31447,-12.45573 -9.96893,-19.16654 -2.98399,-8.28882 -5.19241,-16.79402 -6.82918,-25.45217 -0.76576,-3.59205 -1.5684,-7.15947 -2.55391,-10.69818 -0.13995,-0.50252 -0.7505,-1.09258 -0.4305,-1.50453 0.99901,-1.28607 2.59502,-1.96819 3.89253,-2.95229 0.27828,0.51332 0.4388,1.09222 0.65646,1.64026 0.94088,2.64421 1.67341,5.35598 2.45397,8.05039 1.46455,5.16363 2.91434,10.36125 3.48778,15.71478 0.55892,6.8853 0.36764,13.78883 -0.79124,20.61367 -1.1131,6.65369 -2.28512,13.39225 -5.007,19.61085 -1.90004,3.53554 -4.32576,7.14367 -8.79758,7.006 -3.18009,-0.98612 -4.85862,-3.47036 -5.89166,-6.56479 -1.31957,-5.60907 -0.44707,-11.10644 2.04793,-16.30591 3.35352,-5.98419 7.85442,-10.88678 14.26786,-13.66177 2.82757,-1.14276 4.44368,2.85603 1.61611,3.99879 z"
       inkscape:connector-curvature="0"
       inkscape:export-filename="/home/rick/projects/compiler-tutorial/static/images/acon-compiler.png"
       inkscape:export-xdpi="33.238823"
       inkscape:export-ydpi="33.238823" />
    <path
       style="fill:#4e9a06;fill-opacity:1;stroke:none"
       id="path3154"
       d="m 764.50528,924.42716 c 0.0867,5.86693 0.63852,11.66726 2.4758,17.25396 1.50047,3.47903 4.03905,6.67291 7.8395,7.65808 2.81546,-0.24612 4.43661,-3.30719 5.80497,-5.44814 2.44507,-3.94904 3.22005,-8.47512 3.70571,-13.01237 0.19931,-3.23649 0.21919,-6.49647 -0.11337,-9.72488 -0.095,-0.4911 -0.13186,-1.19085 -0.34872,-1.58422 1.48858,0.29347 3.11314,0.19307 4.46576,0.8804 0.41305,0.2099 -0.006,0.92672 0.002,1.38997 0.0505,2.93346 0.363,5.82427 0.72371,8.73339 0.89576,6.0301 2.66336,11.87539 4.91995,17.52426 1.5368,3.57291 3.54612,6.92051 4.97444,10.54157 0.27792,0.87358 0.66113,1.62783 -0.31238,1.9885 1.05499,0.66669 0.11216,2.15867 -0.94283,1.49198 l 0,0 c -1.12307,0.0366 -1.83425,-0.7606 -2.42093,-1.65724 -2.08633,-3.42334 -3.91057,-7.01754 -5.57152,-10.66246 -2.39037,-6.01563 -4.31895,-12.22267 -5.2216,-18.6517 -0.10691,-0.84015 -1.04804,-10.52694 -0.72865,-10.72626 1.32673,-0.82799 2.98644,-0.92964 4.47967,-1.39447 -0.0709,0.65733 -0.0948,1.32085 -0.1389,1.98178 -0.0886,3.41915 0.0456,6.8454 -0.24732,10.25818 -0.57703,5.0767 -1.54008,10.11711 -4.28986,14.52388 -2.32646,3.55371 -4.97471,7.51999 -9.77922,6.82886 -4.71748,-1.66005 -8.04653,-5.31259 -9.97673,-9.89847 -1.92292,-5.88864 -2.597,-11.96907 -2.56196,-18.16029 -0.095,-2.30682 3.16736,-2.44113 3.26234,-0.13431 z"
       inkscape:connector-curvature="0"
       inkscape:export-filename="/home/rick/projects/compiler-tutorial/static/images/acon-compiler.png"
       inkscape:export-xdpi="33.238823"
       inkscape:export-ydpi="33.238823" />
    <path
       style="fill:#4e9a06;fill-opacity:1;stroke:none"
       id="path3156"
       d="m 818.47366,923.94851 c 1.80165,5.63525 3.41191,11.32978 5.09852,17.00036 0.92988,3.24771 1.9304,6.48587 2.59857,9.80081 0.32423,2.9383 -2.58582,3.23946 -4.26278,0.8859 -0.13327,-0.0881 -0.009,-0.27654 0.12454,-0.18848 l 0,0 c 4.24857,0.6738 -0.27552,2.83698 -0.56457,0.50273 -0.98704,-3.16448 -1.76241,-6.39235 -2.74876,-9.55753 -1.67385,-5.62771 -3.23657,-11.28873 -5.00551,-16.88748 -1.10048,-3.36582 3.65951,-4.92214 4.75999,-1.55631 z"
       inkscape:connector-curvature="0"
       inkscape:export-filename="/home/rick/projects/compiler-tutorial/static/images/acon-compiler.png"
       inkscape:export-xdpi="33.238823"
       inkscape:export-ydpi="33.238823" />
    <path
       style="fill:#4e9a06;fill-opacity:1;stroke:none"
       id="path3158"
       d="m 793.3532,889.03406 c 3.64259,2.46868 7.18448,5.07044 10.60291,7.83999 1.67286,1.64648 3.90702,2.69369 5.494,4.42507 0.10853,0.7623 0.11274,0.33584 -0.12827,1.27299 1.117,1.10011 -0.43879,2.67979 -1.55579,1.57967 l 0,0 c -0.55942,0.66149 -0.21782,0.50715 -0.96336,0.58014 -2.10742,-1.1267 -3.68388,-3.08293 -5.62021,-4.45476 -3.31562,-2.71901 -6.74723,-5.28238 -10.27671,-7.71856 -2.49223,-1.7306 -0.0448,-5.25514 2.44743,-3.52454 z"
       inkscape:connector-curvature="0"
       inkscape:export-filename="/home/rick/projects/compiler-tutorial/static/images/acon-compiler.png"
       inkscape:export-xdpi="33.238823"
       inkscape:export-ydpi="33.238823" />
    <path
       style="fill:#4e9a06;fill-opacity:1;stroke:none"
       id="path3160"
       d="m 825.42882,926.94849 c 2.52069,4.56995 4.27869,9.48681 5.93408,14.41875 1.00986,2.98807 1.89777,6.01282 2.74574,9.04978 0.22605,0.78692 0.34915,1.60773 0.83499,2.27669 0.0219,0.0257 0.0438,0.0515 0.0657,0.0772 -1.50955,0.0119 -3.06707,0.41337 -4.52865,0.0357 -0.01,-0.002 -2.00957,-6.18975 -2.17149,-6.74962 -1.32373,-4.29261 -1.88126,-8.5659 -1.21824,-13.00824 1.0936,-5.21499 4.02918,-9.41676 7.76502,-13.07733 3.78972,-3.40408 8.38569,-4.64576 13.34343,-4.98202 6.39916,-0.0591 11.48167,2.95194 16.05488,7.13634 4.29839,4.51547 6.94721,10.1365 9.19607,15.86923 0.60313,2.0401 1.70684,4.01007 1.98196,6.14368 -0.097,1.26044 -1.56375,0.62744 -2.5587,0.59569 -0.0769,-0.14003 0.12114,-0.24876 0.19802,-0.10874 l 0,0 c -0.007,0.004 -1.62695,1.477 -2.17935,0.92408 -0.98231,-1.77464 -1.29964,-3.87796 -2.18723,-5.69638 -1.96934,-5.03804 -4.2116,-10.01984 -7.89971,-14.06615 -3.47645,-3.39454 -7.32603,-5.98917 -12.35716,-6.11629 -3.85431,0.13351 -7.43415,1.01102 -10.4533,3.55652 -3.09089,2.92241 -5.64395,6.26278 -6.62172,10.49634 -0.64149,3.80231 -0.0423,7.47161 1.1042,11.14195 0.49841,1.76632 1.04466,3.49824 1.63962,5.23398 0.15229,0.44431 0.77858,0.99637 0.45251,1.33443 -1.00254,1.03934 -5.18385,2.76518 -3.77065,2.1331 0.23821,-0.73005 -0.12802,-1.50348 -0.24805,-2.23658 -0.69945,-2.99006 -1.5298,-5.94588 -2.52647,-8.85155 -1.57956,-4.78142 -3.1947,-9.55781 -5.33374,-14.12565 -0.99341,-1.93621 1.7448,-3.3411 2.73821,-1.4049 z"
       inkscape:connector-curvature="0"
       inkscape:export-filename="/home/rick/projects/compiler-tutorial/static/images/acon-compiler.png"
       inkscape:export-xdpi="33.238823"
       inkscape:export-ydpi="33.238823" />
    <path
       style="fill:#4e9a06;fill-opacity:1;stroke:none"
       id="path3162"
       d="m 906.07192,923.7869 c -4.22072,2.81289 -7.36986,6.62964 -9.88758,10.9729 -1.95211,3.91289 -3.3973,8.10517 -3.33745,12.50961 0.43046,3.0054 2.41664,4.9383 5.10501,6.08655 4.07581,1.34846 7.51849,-0.25682 10.80246,-2.61495 4.2496,-3.48115 7.36249,-7.96467 9.52505,-12.97259 1.37586,-3.49793 1.66378,-7.07455 0.63731,-10.67575 -1.24393,-3.33008 -3.86412,-5.61599 -6.63388,-7.68414 -3.3327,-2.25199 -7.01897,-3.93847 -10.72223,-5.48359 -2.97588,-1.24913 -6.09304,-1.8937 -9.30167,-2.08684 -2.95354,-0.25182 -5.72554,0.6951 -8.5302,1.43324 -1.46308,0.35747 -2.80117,-0.22514 -3.76695,-1.32219 -0.15765,0.0258 -0.19417,-0.19712 -0.0365,-0.22294 l 0,0 c 0.15306,-1.56907 0.13473,-2.78052 1.75358,-3.61078 3.41361,-1.76167 7.12877,-2.54815 10.97881,-2.33665 3.892,0.27305 7.69148,1.00935 11.25425,2.66727 4.12907,1.81701 8.21264,3.80688 11.82146,6.54724 3.60788,2.9237 6.84439,6.28561 8.24486,10.83297 1.07875,4.76629 0.74058,9.40626 -1.20447,13.94327 -2.63331,5.76677 -6.26355,10.94498 -11.25692,14.93528 -4.80149,3.27004 -9.87455,5.12855 -15.60561,2.99396 -4.31454,-2.14259 -7.3342,-5.38943 -7.8733,-10.36391 -0.0724,-5.31556 1.39958,-10.37155 3.86078,-15.07966 2.93298,-4.98386 6.57103,-9.36677 11.43076,-12.60576 2.92563,-1.93921 5.66808,2.19825 2.74245,4.13746 z"
       inkscape:connector-curvature="0"
       inkscape:export-filename="/home/rick/projects/compiler-tutorial/static/images/acon-compiler.png"
       inkscape:export-xdpi="33.238823"
       inkscape:export-ydpi="33.238823" />
    <path
       style="fill:#4e9a06;fill-opacity:1;stroke:none"
       id="path3164"
       d="m 635.28869,983.47323 c -0.5299,4.97573 -1.00585,9.95866 -1.37768,14.94885 -0.24443,3.60002 -0.34523,7.20782 -0.38857,10.81522 -0.0635,2.0291 0.17325,4.0489 0.31286,6.0699 0.24264,3.3938 0.59082,6.7773 0.97138,10.1581 0.62934,4.8193 0.93689,9.6713 1.27343,14.5175 0.20641,2.8529 0.53573,5.6911 0.9315,8.523 0.23907,2.0852 0.58733,4.1534 1.0113,6.2082 0.12791,0.6993 0.35276,1.3803 0.44152,2.0841 -5.82388,1.1775 -4.48842,1.427 -5.36569,-2.9573 -0.70264,-3.0843 -1.09223,-6.2127 -1.30979,-9.3647 -0.24958,-3.9071 -0.10329,-7.8241 0.37315,-11.7066 0.46047,-3.7756 2.11271,-7.0818 4.216,-10.1861 1.9146,-2.7776 4.35244,-4.8075 7.60028,-5.7261 3.09663,-0.4714 6.0565,0.5267 8.86943,1.7171 3.54823,1.7045 6.15751,4.4859 8.21206,7.7757 2.43458,4.6782 3.4083,9.9185 4.59036,15.0115 0.61702,3.6878 2.08274,7.3422 2.05124,11.1192 -0.0452,0.5842 -0.17111,0.9896 -0.54414,1.4207 0.17454,1.6365 -2.13983,1.8834 -2.31436,0.2469 l 0,0 c -0.53747,-0.084 -0.67964,-0.4915 -0.94575,-0.9476 -1.4044,-3.4433 -1.50365,-7.3079 -2.55963,-10.8559 -1.04052,-4.6473 -1.85152,-9.4432 -3.92014,-13.7686 -1.54317,-2.5979 -3.51317,-4.807 -6.24324,-6.207 -1.93066,-0.8959 -4.02633,-1.6567 -6.18711,-1.5345 -2.27665,0.4465 -3.85057,2.2024 -5.16321,4.0172 -1.6611,2.6094 -3.11981,5.2882 -3.44572,8.4278 -0.42981,3.6075 -0.55036,7.2495 -0.31016,10.877 0.2374,2.9433 0.59922,5.8704 1.39374,8.7236 1.0237,4.2554 2.14034,3.4585 -3.46794,5.4691 -0.45161,-0.7573 -0.59732,-1.6572 -0.8676,-2.4851 -0.56645,-2.1777 -0.95278,-4.3882 -1.21325,-6.6236 -0.43744,-2.9495 -0.76294,-5.913 -1.00388,-8.8853 -0.35681,-4.7751 -0.64676,-9.5583 -1.26529,-14.3092 -0.38877,-3.4553 -0.75413,-6.9126 -1.00269,-10.3813 -0.14841,-2.161 -0.39671,-4.3211 -0.33583,-6.4906 0.0449,-3.7162 0.12651,-7.433 0.39165,-11.14125 0.37587,-5.03353 0.82384,-10.06303 1.38903,-15.07897 0.36702,-3.6789 5.56976,-3.15985 5.20274,0.51905 z"
       inkscape:connector-curvature="0"
       inkscape:export-filename="/home/rick/projects/compiler-tutorial/static/images/acon-compiler.png"
       inkscape:export-xdpi="33.238823"
       inkscape:export-ydpi="33.238823" />
    <path
       style="fill:#4e9a06;fill-opacity:1;stroke:none"
       id="path3166"
       d="m 679.2654,1033.7214 c 3.15421,-0.6106 6.25808,-1.3965 8.67778,-3.5939 1.07962,-1.0808 1.72636,-2.3166 1.92818,-3.8161 0.17705,-0.2565 -0.31591,-1.7618 -0.23162,-1.1465 -0.75171,-0.076 -1.52168,-0.4973 -2.23657,-0.79 -0.38174,-0.1822 -0.69658,-0.3523 -1.05211,-0.1616 -0.7475,0.4167 -1.18428,1.1267 -1.58228,1.8629 -1.02327,2.486 -1.56829,5.1522 -2.17811,7.7637 -0.77836,3.7112 -1.14283,7.4949 -1.48506,11.2669 -0.28085,2.2105 0.10693,4.1275 1.21267,6.0304 1.10531,1.666 2.61901,2.9908 4.40191,3.88 2.36792,0.9229 4.89717,0.6102 7.31828,0.099 1.48228,-0.207 3.27388,-1.5347 4.70654,-0.6634 0.25312,0.6647 0.51657,0.752 1.12898,0.791 0.0667,-0.1451 0.27198,-0.051 0.20525,0.094 l 0,0 c 0.32979,0.6198 0.26194,1.4702 -0.0304,2.1562 -0.71948,1.8733 -3.39171,1.9717 -5.03198,2.5221 -3.58122,0.6842 -7.23599,0.9182 -10.61918,-0.7127 -2.54228,-1.4447 -4.75381,-3.3136 -6.28936,-5.8418 -1.47957,-2.7694 -2.16449,-5.616 -1.78278,-8.7737 0.33761,-4.0008 0.75953,-8.0095 1.58191,-11.943 0.71631,-3.0638 1.35899,-6.2114 2.71689,-9.0657 1.13139,-1.8918 2.52083,-3.5062 4.73778,-4.0943 1.45772,-0.2295 2.81815,-0.1236 4.09942,0.6757 1.22041,0.7097 2.38779,1.5216 3.2846,2.6296 0.72087,1.3127 0.82637,2.632 0.56395,4.1133 -0.54087,2.1723 -1.45514,4.0737 -3.10681,5.6453 -2.91628,2.5897 -6.47572,3.7313 -10.28187,4.4055 -2.35717,0.4638 -3.01314,-2.8697 -0.65597,-3.3336 z"
       inkscape:connector-curvature="0"
       inkscape:export-filename="/home/rick/projects/compiler-tutorial/static/images/acon-compiler.png"
       inkscape:export-xdpi="33.238823"
       inkscape:export-ydpi="33.238823" />
    <path
       style="fill:#4e9a06;fill-opacity:1;stroke:none"
       id="path3168"
       d="m 730.97046,1014.9216 c -4.01781,6.0617 -8.13184,12.0581 -12.31176,18.0089 -2.9566,4.3703 -6.21178,8.5279 -9.17938,12.8893 -1.55629,2.2614 -2.75274,4.7383 -4.21237,7.059 -0.25408,0.3386 -1.61556,2.6236 -2.25954,2.234 -0.65204,-0.3945 -1.06256,-1.0927 -1.59384,-1.639 -0.2759,-0.2903 -0.0519,-0.6155 -0.047,-0.9714 -0.0807,-0.1379 0.11429,-0.252 0.19498,-0.1141 l 0,0 c 0.30295,0.1157 0.53737,-0.075 0.78194,0.1435 -0.34363,-0.3611 -0.60543,-0.8236 -1.03089,-1.0833 -0.37755,-0.2305 -0.95176,1.0423 -0.40039,-0.1802 0.0994,-0.2204 0.20202,-0.4392 0.30303,-0.6588 1.27212,-2.5783 2.63661,-5.1222 4.24373,-7.5088 2.95838,-4.3993 6.19796,-8.6014 9.16992,-12.9923 4.13547,-5.923 8.21856,-11.8828 12.23098,-17.8899 1.91138,-2.9066 6.02195,-0.2035 4.11057,2.7031 z"
       inkscape:connector-curvature="0"
       inkscape:export-filename="/home/rick/projects/compiler-tutorial/static/images/acon-compiler.png"
       inkscape:export-xdpi="33.238823"
       inkscape:export-ydpi="33.238823" />
    <path
       style="fill:#4e9a06;fill-opacity:1;stroke:none"
       id="path3170"
       d="m 704.45369,1022.0156 c 5.25099,3.6205 10.52527,7.2075 15.77376,10.8319 6.10514,4.2947 12.26608,8.5083 18.3296,12.862 3.93,2.7944 7.55214,5.9739 11.0093,9.3266 2.19414,2.1608 1.96855,1.8417 -1.65529,3.5627 -0.15752,-0.027 -0.12004,-0.2493 0.0375,-0.2228 l 0,0 c -1.79758,2.1356 -1.27041,2.5009 -2.64645,0.827 -3.04309,-3.3076 -6.48278,-6.2041 -10.10922,-8.8545 -5.99839,-4.394 -12.11507,-8.6199 -18.14619,-12.9682 -5.18752,-3.6989 -10.37893,-7.3936 -15.4368,-11.2693 -2.89586,-2.0109 -0.0521,-6.1063 2.8438,-4.0954 z"
       inkscape:connector-curvature="0"
       inkscape:export-filename="/home/rick/projects/compiler-tutorial/static/images/acon-compiler.png"
       inkscape:export-xdpi="33.238823"
       inkscape:export-ydpi="33.238823" />
    <path
       style="fill:#4e9a06;fill-opacity:1;stroke:none"
       id="path3184"
       d="m -403.9627,1010.9161 c -4.15909,2.4513 -8.38833,4.7699 -12.20307,7.7438 -3.66193,3.0491 -5.43481,7.34 -6.88065,11.7469 -1.64462,5.864 -2.45072,11.9227 -2.64568,17.9992 -0.0966,5.4433 2.016,10.1954 5.08347,14.5542 2.62497,3.491 6.12272,4.7349 10.3435,4.8253 4.15022,-0.3295 8.05535,-1.9304 11.7609,-3.7401 1.72464,-0.8568 3.29452,-2.0734 5.28173,-2.0681 0.51843,0.1598 1.00964,-0.033 1.51779,0.096 0.13239,-0.089 0.2588,0.098 0.1264,0.1872 l 0,0 c -0.11011,0.5691 -0.56326,0.871 -0.79434,1.4005 -1.06013,1.688 -2.94675,2.494 -4.63452,3.434 -4.20224,2.0721 -8.6553,3.8135 -13.39031,4.0078 -5.2054,-0.2842 -9.54583,-2.0701 -12.88782,-6.2348 -3.56536,-4.945 -6.01652,-10.3236 -5.96856,-16.5536 0.12656,-6.4363 0.82788,-12.8742 2.61016,-19.0805 1.66582,-5.1411 3.8418,-10.0573 8.06694,-13.632 3.91864,-3.1213 8.24606,-5.6081 12.57821,-8.1084 2.41996,-1.4396 4.45581,1.9828 2.03585,3.4223 z"
       inkscape:connector-curvature="0"
       inkscape:export-filename="/home/rick/projects/compiler-tutorial/static/images/acon-compiler.png"
       inkscape:export-xdpi="33.238823"
       inkscape:export-ydpi="33.238823" />
    <path
       style="fill:#4e9a06;fill-opacity:1;stroke:none"
       id="path3186"
       d="m -354.19044,1015.7912 c -5.72482,4.1304 -9.39327,10.0236 -12.14513,16.3931 -2.48443,7.539 -2.88434,13.2392 1.38006,20.0941 4.40196,5.3362 9.15739,6.9731 15.89035,6.7446 6.45772,-0.7732 11.09041,-4.2888 14.27928,-9.7873 2.72292,-6.2798 1.05026,-12.4981 -1.42933,-18.5246 -2.65394,-5.2709 -6.44356,-9.9362 -10.7363,-13.9628 -2.14852,-1.5151 -4.56863,-3.1098 -7.15068,-3.7837 -0.19477,-0.1896 -0.38954,-0.3792 -0.58432,-0.5687 -0.15912,-0.014 -0.13918,-0.2391 0.0199,-0.225 l 0,0 c 0.2477,-0.1504 0.4954,-0.3007 0.7431,-0.4511 3.30687,0.1391 6.29154,0.5405 8.98765,2.7469 4.92146,4.1211 9.04673,9.1652 11.8641,14.9555 2.88192,7.0508 4.54947,14.2906 1.22083,21.5466 -4.07784,6.8047 -9.09921,10.555 -17.12851,11.572 -8.02746,0.1311 -13.80528,-1.995 -18.92195,-8.4406 -0.66615,-1.0824 -1.44039,-2.1053 -1.99847,-3.2471 -3.14119,-6.4272 -2.19417,-13.6729 0.002,-20.2143 3.07822,-7.0666 7.12792,-13.5688 13.48249,-18.1637 2.3448,-1.573 4.5694,1.743 2.2246,3.3161 z"
       inkscape:connector-curvature="0"
       inkscape:export-filename="/home/rick/projects/compiler-tutorial/static/images/acon-compiler.png"
       inkscape:export-xdpi="33.238823"
       inkscape:export-ydpi="33.238823" />
    <path
       style="fill:#4e9a06;fill-opacity:1;stroke:none"
       id="path3188"
       d="m -308.99532,1011.5285 c 2.70119,5.385 4.8627,11.0141 6.94736,16.6592 1.21166,3.701 3.07856,7.1568 4.2288,10.8764 -0.66896,-0.2123 0.60119,1.0005 0.24894,1.0311 -0.93676,0.081 -1.9499,0.2253 -2.81751,-0.1371 -0.0405,-0.017 -1.54832,-4.5493 -1.60882,-4.7318 -2.22503,-6.2248 -2.34038,-12.5334 -1.29354,-18.9824 1.46874,-5.5291 3.47277,-11.3925 7.79613,-15.347 5.14643,-2.84391 9.16972,2.1326 12.22358,5.7309 5.1746,6.5226 7.86602,14.2591 9.88577,22.2166 1.61343,7.3037 2.18185,14.7746 2.73512,22.2168 0.30437,3.6107 0.52239,7.2528 1.31512,10.7976 0.33849,1.3017 0.12984,-0.5507 -0.24054,-0.4898 -0.61002,0.1003 -1.03778,0.6721 -1.55668,1.0082 -0.0149,-0.1591 0.20997,-0.1802 0.22492,-0.021 l 0,0 c -1.99633,3.111 -1.9059,2.7001 -2.28676,0.022 -0.18918,-3.6995 -0.69643,-7.3736 -0.91104,-11.072 -0.48927,-7.2547 -0.92055,-14.5417 -2.46994,-21.6677 -1.83182,-7.511 -4.37327,-14.8119 -9.03082,-21.0915 -1.84995,-2.3316 -4.68867,-6.8971 -8.22172,-5.7669 -4.01292,3.3978 -5.49026,9.053 -6.97185,13.8814 -1.0452,6.0292 -0.91707,11.948 1.30481,17.7356 0.35628,1.0755 1.7458,4.3781 1.57938,4.6164 -0.50494,0.7228 -1.4764,0.9645 -2.20981,1.4539 -0.009,0.01 0.0211,-10e-5 0.0316,-2e-4 -0.064,-0.1673 -0.12807,-0.3346 -0.19211,-0.5019 -1.53755,-3.5765 -3.35095,-7.0353 -4.55888,-10.7512 -2.03853,-5.586 -4.21429,-11.1197 -6.66058,-16.5413 -0.80914,-1.7742 1.69993,-2.9185 2.50906,-1.1443 z"
       inkscape:connector-curvature="0"
       inkscape:export-filename="/home/rick/projects/compiler-tutorial/static/images/acon-compiler.png"
       inkscape:export-xdpi="33.238823"
       inkscape:export-ydpi="33.238823" />
    <path
       style="fill:#4e9a06;fill-opacity:1;stroke:none"
       id="path3190"
       d="m 92.898179,915.48534 c -4.393139,-0.20092 -8.784536,-0.18247 -13.131256,0.51844 -4.553074,0.99267 -7.930039,3.99158 -11.142268,7.17211 -4.128722,4.25495 -7.542947,9.07384 -10.435812,14.23044 -1.584094,3.08158 -3.301305,6.30788 -2.965865,9.86315 0.884228,2.77728 3.379847,4.63777 5.635938,6.2989 3.875142,2.35394 8.368535,2.61658 12.779561,2.73983 3.743921,0.19786 7.386698,-0.51634 11.020197,-1.29125 2.294387,-0.38244 4.760697,-1.12148 6.988293,-0.15239 0.461524,0.34972 0.856925,0.62281 1.432526,0.64084 0.148052,-0.06 0.232882,0.14939 0.08483,0.20938 l 0,0 c -0.44688,0.41357 -0.840838,0.8736 -1.245937,1.32805 -1.89836,1.31452 -4.272714,1.2025 -6.456744,1.73917 -3.940224,0.84032 -7.904275,1.54195 -11.958667,1.3294 -5.152011,-0.22044 -10.343273,-0.70918 -14.774466,-3.61867 -3.198963,-2.30929 -6.415135,-4.88612 -7.289388,-8.93828 -0.274913,-4.35099 1.282038,-8.26546 3.342028,-12.05489 3.061292,-5.48434 6.689485,-10.60851 11.076939,-15.12613 3.816081,-3.757 7.874588,-7.17338 13.280748,-8.2684 4.63852,-0.74666 9.3403,-0.80551 14.023575,-0.43824 2.700113,0.18684 2.435882,4.00538 -0.264231,3.81854 z"
       inkscape:connector-curvature="0"
       inkscape:export-filename="/home/rick/projects/compiler-tutorial/static/images/acon-compiler.png"
       inkscape:export-xdpi="33.238823"
       inkscape:export-ydpi="33.238823" />
    <path
       style="fill:#4e9a06;fill-opacity:1;stroke:none"
       id="path3192"
       d="m 123.15824,922.51249 c -4.17073,3.9535 -7.47288,8.53547 -9.72861,13.80781 -1.7774,4.59085 -2.03075,9.17319 0.43809,13.48818 2.82421,3.70517 7.00633,4.79324 11.40229,5.42252 4.51841,0.42232 8.70511,-0.71573 12.47782,-3.15023 2.77439,-2.08295 4.36402,-5.05189 5.46318,-8.26573 0.66588,-2.33261 0.85331,-4.64717 -0.44766,-6.75318 -2.16651,-2.75214 -5.19473,-4.65568 -8.09999,-6.53893 -2.55686,-1.67724 -5.18534,-3.18667 -8.06052,-4.23402 -1.91439,-0.66141 -3.98118,-0.73223 -5.85468,-1.51203 -0.56932,-0.3981 -1.13388,-0.94818 -1.46389,-1.57451 -0.15957,-0.008 -0.14895,-0.23317 0.0106,-0.22566 l 0,0 c 0.42725,-0.60261 1.14927,-1.04196 1.82629,-1.28805 2.28499,-0.30111 4.57682,0.36731 6.77277,0.93837 3.20309,1.09791 6.14257,2.72081 8.90562,4.67999 3.35484,2.2801 6.83431,4.5918 9.2124,7.94784 1.66375,3.18075 1.68311,6.38581 0.50996,9.78393 -1.51268,3.84669 -3.54741,7.4379 -6.99275,9.88306 -4.49873,2.7545 -9.43927,4.09055 -14.75,3.5483 -5.36418,-0.85237 -10.42914,-2.4476 -13.61072,-7.18333 -2.77699,-5.24572 -2.7662,-10.67338 -0.633,-16.2221 2.46709,-5.61705 5.93953,-10.57276 10.43629,-14.7803 1.57548,-1.54608 3.76197,0.68199 2.18649,2.22807 z"
       inkscape:connector-curvature="0"
       inkscape:export-filename="/home/rick/projects/compiler-tutorial/static/images/acon-compiler.png"
       inkscape:export-xdpi="33.238823"
       inkscape:export-ydpi="33.238823" />
    <path
       style="fill:#4e9a06;fill-opacity:1;stroke:none"
       id="path3194"
       d="m 163.55147,912.31829 c 1.93379,5.31317 3.71495,10.67781 5.46468,16.05366 1.28126,4.06956 2.50023,8.16156 3.28452,12.35878 0.17012,1.29739 0.46119,2.57657 0.61688,3.87583 -0.0414,-0.1209 0.003,-0.34978 -0.12435,-0.36271 -0.94155,-0.0957 -1.94193,0.36442 -2.83853,0.0615 -0.37836,-0.12784 -0.23131,-0.7647 -0.36084,-1.14248 -0.6096,-1.77799 -1.3372,-3.51512 -2.03918,-5.25763 -1.99026,-4.48028 -2.92655,-9.18823 -3.15775,-14.05655 -0.0883,-4.36 0.72671,-8.6475 1.65229,-12.88507 0.72885,-2.88387 2.63784,-4.96673 4.96798,-6.68759 3.40371,-2.05699 7.02724,-1.06685 10.49776,0.24209 4.39047,1.92176 8.29986,4.74277 12.0216,7.72597 3.68778,2.86751 5.91952,6.72875 7.66476,10.96833 1.7339,4.50893 2.33599,9.30376 2.74205,14.08304 0.16462,3.30945 0.33882,6.62364 0.35175,9.93814 0.0151,0.96684 -0.37049,1.13835 -1.24661,1.24359 -0.13639,1.21697 -1.85744,1.02408 -1.72105,-0.19289 l 0,0 c -0.84728,0.002 -1.2259,-0.0918 -1.21296,-1.03458 -0.0122,-3.21084 0.0195,-6.42476 -0.23952,-9.62895 -0.32684,-4.37694 -0.80842,-8.78307 -2.32507,-12.93361 -1.44323,-3.65202 -3.19504,-7.11725 -6.26415,-9.69536 -3.38555,-2.83901 -7.00991,-5.41036 -11.01922,-7.30204 -2.34844,-0.97113 -4.99571,-2.14263 -7.44613,-0.86551 -1.77941,1.18595 -3.20685,2.72526 -3.8361,4.81297 -0.95448,3.95991 -1.75381,7.98617 -1.71139,12.0792 0.20184,4.55061 1.07589,8.92226 2.95976,13.1022 0.23166,0.56696 2.68171,6.62936 2.55423,6.85836 -0.51632,0.92756 -1.45827,1.59177 -2.38354,2.11219 -0.19594,0.11021 -0.19003,-0.40748 -0.28504,-0.61122 -0.36063,-1.2695 -0.50013,-2.58451 -0.76297,-3.87519 -0.8211,-4.06402 -1.97404,-8.0471 -3.19402,-12.00771 -1.71481,-5.33885 -3.40518,-10.68528 -5.06301,-16.04173 -0.66115,-1.73466 1.79203,-2.66966 2.45317,-0.935 z"
       inkscape:connector-curvature="0"
       inkscape:export-filename="/home/rick/projects/compiler-tutorial/static/images/acon-compiler.png"
       inkscape:export-xdpi="33.238823"
       inkscape:export-ydpi="33.238823" />
    <path
       style="fill:#4e9a06;fill-opacity:1;stroke:none"
       id="path3196"
       d="m 251.19646,913.41029 c -4.08975,0.4154 -7.9264,1.66574 -11.30346,4.00415 -3.43327,2.6031 -5.34905,6.4339 -7.02612,10.29266 -1.61717,3.82943 -2.55405,7.86672 -2.40345,12.02432 0.21205,2.83905 1.13138,5.35083 2.98618,7.49386 1.96478,1.98482 4.25903,3.55772 6.75444,4.78912 2.8012,1.23434 5.82405,1.16642 8.81108,0.96219 4.17984,-0.46262 8.31424,-1.26458 12.41284,-2.19355 3.15806,-0.48973 4.30849,-2.31723 5.83913,1.03913 0.15471,-0.0398 0.21095,0.17904 0.0562,0.2188 l 0,0 c 0.22127,3.74382 -1.70677,2.60812 -4.83001,3.51115 -4.35369,0.95891 -8.73527,1.83155 -13.17695,2.26864 -3.84586,0.21904 -7.6949,0.10903 -11.24751,-1.5709 -3.04507,-1.56125 -5.89436,-3.49713 -8.2711,-5.98043 -2.46981,-3.04011 -3.89185,-6.44596 -4.13067,-10.39824 -0.1152,-4.87606 0.78594,-9.62372 2.72231,-14.12143 2.06883,-4.70835 4.50656,-9.2851 8.75815,-12.39112 4.10233,-2.72995 8.64765,-4.35086 13.57666,-4.82318 3.44702,-0.33394 3.91927,4.54089 0.47225,4.87483 z"
       inkscape:connector-curvature="0"
       inkscape:export-filename="/home/rick/projects/compiler-tutorial/static/images/acon-compiler.png"
       inkscape:export-xdpi="33.238823"
       inkscape:export-ydpi="33.238823" />
  </g>
</svg>
